if (_typeface_js && _typeface_js.loadFace) _typeface_js.loadFace({"glyphs":{"0":{"ha":836,"x_min":-69,"x_max":669,"o":"m -69 156 l -69 817 l 86 972 l 514 972 l 669 817 l 669 156 l 514 0 l 86 0 l -69 156 m 97 24 l 503 24 l 646 167 l 646 806 l 503 949 l 97 949 l -46 806 l -46 167 l 97 24 m -15 182 l -15 790 l 113 918 l 486 918 l 617 789 l 617 182 l 489 54 l 113 54 l -15 182 m 207 165 l 394 165 l 454 225 l 454 747 l 397 804 l 204 804 l 147 747 l 147 225 l 207 165 m 175 244 l 175 728 l 224 776 l 376 776 l 425 728 l 425 244 l 376 196 l 224 196 l 175 244 m 229 218 l 371 218 l 401 249 l 401 722 l 371 753 l 228 753 l 197 722 l 197 250 l 229 218 z "},"1":{"ha":838,"x_min":175,"x_max":661,"o":"m 175 0 l 175 218 l 297 218 l 297 638 l 175 638 l 175 792 l 356 972 l 564 972 l 564 218 l 661 218 l 661 0 l 175 0 m 639 24 l 639 196 l 542 196 l 542 949 l 360 949 l 199 788 l 199 661 l 321 661 l 321 196 l 199 196 l 199 24 l 639 24 m 229 54 l 229 165 l 351 165 l 351 690 l 229 690 l 229 768 l 379 918 l 510 918 l 510 165 l 607 165 l 607 54 l 229 54 z "},"2":{"ha":836,"x_min":49,"x_max":788,"o":"m 49 0 l 49 226 l 519 658 l 519 721 l 488 753 l 347 753 l 315 721 l 315 624 l 49 624 l 49 817 l 204 972 l 632 972 l 788 817 l 788 560 l 479 251 l 788 251 l 788 0 l 49 0 m 765 24 l 765 228 l 428 228 l 764 564 l 764 811 l 626 949 l 213 949 l 72 808 l 72 647 l 293 647 l 293 728 l 339 774 l 499 774 l 543 729 l 543 656 l 76 222 l 76 24 l 765 24 m 103 54 l 103 204 l 574 638 l 574 747 l 514 807 l 322 807 l 263 747 l 263 678 l 103 678 l 103 789 l 231 918 l 607 918 l 735 790 l 735 581 l 353 199 l 735 199 l 735 54 l 103 54 z "},"3":{"ha":836,"x_min":49,"x_max":788,"o":"m 49 156 l 49 297 l 315 297 l 315 250 l 347 218 l 489 218 l 519 249 l 519 343 l 489 374 l 368 374 l 368 599 l 492 599 l 519 628 l 519 722 l 489 753 l 346 753 l 315 722 l 315 656 l 49 656 l 49 817 l 204 972 l 632 972 l 788 817 l 788 528 l 746 486 l 788 444 l 788 156 l 632 0 l 204 0 l 49 156 m 210 24 l 626 24 l 764 161 l 764 439 l 717 486 l 764 533 l 764 807 l 622 949 l 213 949 l 72 808 l 72 678 l 293 678 l 293 728 l 342 776 l 494 776 l 542 729 l 542 621 l 496 575 l 392 575 l 392 397 l 496 397 l 543 349 l 543 244 l 494 196 l 342 196 l 293 244 l 293 274 l 72 274 l 72 161 l 210 24 m 104 182 l 104 244 l 263 244 l 263 225 l 322 165 l 513 165 l 574 226 l 574 367 l 513 428 l 421 428 l 421 544 l 513 544 l 574 606 l 574 746 l 513 807 l 322 807 l 263 747 l 263 708 l 103 708 l 103 789 l 232 918 l 607 918 l 735 790 l 735 551 l 669 486 l 735 421 l 735 182 l 608 56 l 231 56 l 104 182 z "},"4":{"ha":838,"x_min":51,"x_max":786,"o":"m 51 292 l 51 576 l 447 972 l 685 972 l 685 510 l 786 510 l 786 292 l 685 292 l 685 218 l 743 218 l 743 0 l 360 0 l 360 218 l 417 218 l 417 292 l 51 292 m 440 315 l 440 196 l 382 196 l 382 24 l 719 24 l 719 196 l 660 196 l 660 315 l 761 315 l 761 488 l 660 488 l 660 949 l 451 949 l 75 572 l 75 315 l 440 315 m 106 346 l 106 554 l 469 918 l 631 918 l 631 457 l 732 457 l 732 346 l 631 346 l 631 165 l 689 165 l 689 54 l 413 54 l 413 165 l 469 165 l 469 346 l 106 346 m 469 457 l 469 710 l 265 506 l 265 457 l 469 457 m 296 488 l 440 632 l 440 488 l 296 488 m 417 510 l 417 579 l 347 510 l 417 510 z "},"5":{"ha":836,"x_min":49,"x_max":788,"o":"m 49 156 l 49 328 l 315 328 l 315 250 l 347 218 l 489 218 l 519 249 l 519 419 l 489 450 l 204 450 l 49 606 l 49 972 l 788 972 l 788 753 l 315 753 l 315 699 l 347 667 l 640 667 l 788 519 l 788 156 l 632 0 l 204 0 l 49 156 m 210 24 l 626 24 l 764 161 l 764 515 l 636 643 l 343 643 l 293 693 l 293 776 l 764 776 l 764 949 l 72 949 l 72 611 l 210 474 l 494 474 l 543 426 l 543 244 l 494 196 l 342 196 l 293 244 l 293 304 l 72 304 l 72 161 l 210 24 m 103 182 l 103 275 l 263 275 l 263 225 l 322 165 l 513 165 l 574 226 l 574 443 l 514 503 l 231 503 l 103 631 l 103 918 l 735 918 l 735 807 l 263 807 l 263 674 l 324 613 l 617 613 l 735 494 l 735 183 l 606 54 l 231 54 l 103 182 z "},"6":{"ha":836,"x_min":49,"x_max":788,"o":"m 49 156 l 49 817 l 204 972 l 632 972 l 788 817 l 788 657 l 519 657 l 519 722 l 489 753 l 346 753 l 315 722 l 315 583 l 632 583 l 788 428 l 788 156 l 632 0 l 204 0 l 49 156 m 210 24 l 626 24 l 764 161 l 764 422 l 626 560 l 293 560 l 293 728 l 342 776 l 494 776 l 543 728 l 543 682 l 764 682 l 764 811 l 626 949 l 210 949 l 72 811 l 72 161 l 210 24 m 103 182 l 103 790 l 231 918 l 607 918 l 735 790 l 735 711 l 574 711 l 574 747 l 514 807 l 322 807 l 263 747 l 263 529 l 606 529 l 735 400 l 735 183 l 606 54 l 231 54 l 103 182 m 322 165 l 514 165 l 574 225 l 574 358 l 514 418 l 322 418 l 263 358 l 263 225 l 322 165 m 293 244 l 293 339 l 342 388 l 494 388 l 543 339 l 543 244 l 494 196 l 342 196 l 293 244 m 347 218 l 489 218 l 519 249 l 519 333 l 489 364 l 346 364 l 315 333 l 315 250 l 347 218 z "},"7":{"ha":838,"x_min":49,"x_max":789,"o":"m 49 696 l 49 972 l 789 972 l 789 785 l 499 0 l 218 0 l 497 753 l 267 753 l 267 696 l 49 696 m 244 718 l 244 776 l 531 776 l 251 24 l 476 24 l 765 790 l 765 949 l 72 949 l 72 718 l 244 718 m 103 749 l 103 918 l 735 918 l 735 807 l 458 58 l 297 58 l 574 807 l 214 807 l 214 749 l 103 749 z "},"8":{"ha":836,"x_min":50,"x_max":786,"o":"m 50 156 l 50 425 l 111 486 l 50 547 l 50 817 l 206 972 l 631 972 l 786 817 l 786 547 l 725 486 l 786 425 l 786 156 l 631 0 l 206 0 l 50 156 m 211 24 l 625 24 l 763 161 l 763 419 l 696 486 l 763 553 l 763 811 l 625 949 l 211 949 l 74 811 l 74 553 l 139 486 l 74 419 l 74 161 l 211 24 m 104 182 l 104 397 l 192 486 l 104 575 l 104 790 l 232 918 l 604 918 l 732 790 l 732 575 l 644 486 l 732 397 l 732 182 l 604 54 l 232 54 l 104 182 m 336 165 l 499 165 l 558 225 l 558 369 l 499 429 l 336 429 l 276 369 l 276 225 l 336 165 m 336 543 l 500 543 l 558 603 l 558 747 l 500 807 l 336 807 l 276 747 l 276 603 l 336 543 m 306 244 l 306 351 l 356 400 l 481 400 l 529 351 l 529 244 l 481 196 l 354 196 l 306 244 m 306 621 l 306 728 l 356 776 l 481 776 l 529 728 l 529 621 l 481 572 l 356 572 l 306 621 m 361 596 l 475 596 l 507 626 l 507 722 l 475 753 l 361 753 l 329 722 l 329 626 l 361 596 m 361 218 l 475 218 l 507 250 l 507 346 l 475 376 l 361 376 l 329 346 l 329 250 l 361 218 z "},"9":{"ha":836,"x_min":49,"x_max":788,"o":"m 49 156 l 49 314 l 315 314 l 315 250 l 347 218 l 489 218 l 519 249 l 519 389 l 204 389 l 49 544 l 49 817 l 204 972 l 632 972 l 788 817 l 788 156 l 632 0 l 204 0 l 49 156 m 210 24 l 626 24 l 764 161 l 764 811 l 626 949 l 210 949 l 72 811 l 72 550 l 210 413 l 543 413 l 543 244 l 494 196 l 342 196 l 293 244 l 293 290 l 72 290 l 72 161 l 210 24 m 103 181 l 103 261 l 263 261 l 263 225 l 322 165 l 514 165 l 574 225 l 574 442 l 231 442 l 103 569 l 103 790 l 231 918 l 606 918 l 735 790 l 735 181 l 608 54 l 231 54 l 103 181 m 322 554 l 513 554 l 574 615 l 574 747 l 513 806 l 322 806 l 263 747 l 263 614 l 322 554 m 293 633 l 293 728 l 342 776 l 494 776 l 543 728 l 543 633 l 494 585 l 342 585 l 293 633 m 347 607 l 489 607 l 519 639 l 519 722 l 489 753 l 346 753 l 315 722 l 315 639 l 347 607 z "}," ":{"ha":392,"x_min":0,"x_max":0,"o":""},"!":{"ha":364,"x_min":49,"x_max":317,"o":"m 49 292 l 49 972 l 317 972 l 317 292 l 49 292 m 49 0 l 49 219 l 317 219 l 317 0 l 49 0 m 293 315 l 293 949 l 72 949 l 72 315 l 293 315 m 293 24 l 293 196 l 72 196 l 72 24 l 293 24 m 103 54 l 103 165 l 263 165 l 263 54 l 103 54 m 103 346 l 103 918 l 263 918 l 263 346 l 103 346 z "},"\"":{"ha":610,"x_min":10,"x_max":536,"o":"m 258 972 l 258 724 l 83 549 l 83 724 l 10 724 l 10 972 l 258 972 m 35 947 l 35 747 l 107 747 l 107 604 l 235 732 l 235 947 l 35 947 m 204 918 l 204 747 l 136 679 l 136 778 l 64 778 l 64 918 l 204 918 m 536 972 l 536 724 l 361 549 l 361 724 l 288 724 l 288 972 l 536 972 m 313 947 l 313 747 l 385 747 l 385 604 l 513 732 l 513 947 l 313 947 m 482 918 l 482 746 l 414 678 l 414 778 l 342 778 l 342 918 l 482 918 z "},"#":{"ha":786,"x_min":17,"x_max":765,"o":"m 765 717 l 726 536 l 589 536 l 565 421 l 701 421 l 665 242 l 526 242 l 474 -1 l 293 -1 l 344 242 l 335 242 l 283 -1 l 103 -1 l 153 242 l 17 242 l 51 421 l 192 421 l 217 536 l 76 536 l 115 717 l 256 717 l 304 958 l 486 958 l 436 717 l 444 717 l 497 958 l 679 958 l 626 717 l 765 717 m 735 693 l 601 693 l 653 935 l 514 935 l 463 693 l 413 693 l 461 935 l 321 935 l 271 693 l 138 693 l 108 560 l 242 560 l 211 397 l 74 397 l 46 265 l 179 265 l 128 22 l 268 22 l 318 265 l 371 265 l 318 22 l 453 22 l 504 265 l 646 265 l 675 397 l 536 397 l 572 560 l 706 560 l 735 693 m 708 669 l 689 583 l 551 583 l 507 375 l 644 375 l 628 289 l 489 289 l 436 46 l 350 46 l 401 289 l 297 289 l 246 46 l 160 46 l 210 289 l 72 289 l 90 375 l 231 375 l 274 583 l 135 583 l 153 669 l 293 669 l 343 913 l 429 913 l 379 669 l 482 669 l 535 913 l 621 913 l 569 669 l 708 669 m 465 583 l 360 583 l 317 375 l 421 375 l 465 583 m 374 421 l 383 421 l 407 536 l 397 536 l 374 421 m 343 397 l 376 560 l 436 560 l 401 397 l 343 397 z "},"$":{"ha":874,"x_min":67,"x_max":807,"o":"m 67 218 l 67 364 l 335 364 l 335 271 l 365 240 l 508 240 l 539 271 l 539 364 l 508 396 l 222 396 l 67 553 l 67 756 l 221 910 l 300 910 l 300 972 l 425 972 l 425 910 l 454 910 l 454 972 l 581 972 l 581 910 l 651 910 l 807 754 l 807 603 l 539 603 l 539 701 l 508 732 l 365 732 l 335 701 l 335 603 l 367 571 l 651 571 l 807 415 l 807 218 l 651 63 l 581 63 l 581 0 l 456 0 l 456 63 l 425 63 l 425 0 l 300 0 l 300 63 l 222 63 l 67 218 m 231 86 l 324 86 l 324 24 l 401 24 l 401 86 l 479 86 l 479 24 l 557 24 l 557 86 l 643 86 l 781 224 l 781 408 l 642 547 l 361 547 l 311 597 l 311 706 l 361 756 l 513 756 l 563 706 l 563 626 l 783 626 l 783 750 l 647 886 l 557 886 l 557 949 l 478 949 l 478 886 l 401 886 l 401 949 l 324 949 l 324 886 l 226 886 l 90 750 l 90 557 l 228 419 l 513 419 l 563 369 l 563 265 l 513 215 l 361 215 l 311 265 l 311 340 l 90 340 l 90 226 l 231 86 m 121 244 l 121 311 l 281 311 l 281 247 l 342 186 l 532 186 l 593 247 l 593 389 l 532 450 l 250 450 l 121 578 l 121 728 l 249 856 l 343 856 l 343 929 l 382 929 l 382 856 l 499 856 l 499 929 l 538 929 l 538 856 l 625 856 l 753 728 l 753 657 l 593 657 l 593 725 l 532 786 l 342 786 l 281 725 l 281 578 l 342 518 l 624 518 l 753 390 l 753 244 l 625 117 l 538 117 l 538 43 l 499 43 l 499 117 l 382 117 l 382 43 l 343 43 l 343 117 l 250 117 l 121 244 z "},"%":{"ha":1406,"x_min":49,"x_max":1357,"o":"m 49 397 l 49 874 l 146 971 l 440 971 l 538 874 l 538 397 l 440 300 l 146 300 l 49 397 m 392 0 l 878 972 l 1010 972 l 524 0 l 392 0 m 151 324 l 435 324 l 514 403 l 514 868 l 435 947 l 151 947 l 72 868 l 72 403 l 151 324 m 511 24 l 974 949 l 890 949 l 429 24 l 511 24 m 150 431 l 150 842 l 219 911 l 369 911 l 436 844 l 436 431 l 365 360 l 221 360 l 150 431 m 478 54 l 911 918 l 922 918 l 490 54 l 478 54 m 224 383 l 363 383 l 413 433 l 413 839 l 364 888 l 224 888 l 174 838 l 174 433 l 224 383 m 868 103 l 868 575 l 967 675 l 1260 675 l 1357 576 l 1357 100 l 1261 4 l 967 4 l 868 103 m 971 28 l 1254 28 l 1333 107 l 1333 572 l 1254 651 l 971 651 l 892 572 l 892 107 l 971 28 m 969 135 l 969 544 l 1039 614 l 1189 614 l 1254 549 l 1254 135 l 1183 64 l 1040 64 l 969 135 m 1044 88 l 1181 88 l 1232 138 l 1232 543 l 1183 592 l 1043 592 l 993 542 l 993 138 l 1044 88 z "},"&":{"ha":874,"x_min":68,"x_max":806,"o":"m 68 218 l 68 444 l 110 486 l 68 528 l 68 756 l 222 910 l 328 910 l 328 972 l 547 972 l 547 910 l 650 910 l 806 754 l 806 593 l 539 593 l 539 661 l 508 692 l 365 692 l 335 661 l 335 615 l 365 585 l 486 585 l 486 388 l 365 388 l 335 357 l 335 313 l 367 281 l 507 281 l 539 313 l 539 360 l 806 360 l 806 218 l 650 63 l 547 63 l 547 0 l 328 0 l 328 63 l 224 63 l 68 218 m 226 86 l 351 86 l 351 24 l 524 24 l 524 86 l 646 86 l 783 224 l 783 336 l 563 336 l 563 307 l 513 257 l 361 257 l 311 307 l 311 363 l 360 411 l 463 411 l 463 557 l 363 557 l 311 608 l 311 665 l 361 715 l 518 715 l 563 671 l 563 617 l 782 617 l 782 750 l 646 886 l 524 886 l 524 949 l 351 949 l 351 886 l 228 886 l 90 749 l 90 533 l 138 486 l 90 439 l 90 222 l 226 86 m 121 246 l 121 418 l 188 485 l 121 551 l 121 728 l 250 856 l 371 856 l 371 929 l 503 929 l 503 856 l 624 856 l 753 726 l 753 647 l 593 647 l 593 688 l 535 746 l 342 746 l 281 685 l 281 592 l 342 531 l 433 531 l 433 442 l 342 442 l 281 381 l 281 288 l 342 228 l 532 228 l 593 288 l 593 307 l 753 307 l 753 244 l 625 117 l 503 117 l 503 43 l 371 43 l 371 117 l 250 117 l 121 246 z "},"'":{"ha":267,"x_min":10,"x_max":258,"o":"m 258 972 l 258 724 l 83 549 l 83 724 l 10 724 l 10 972 l 258 972 m 35 947 l 35 747 l 107 747 l 107 601 l 235 729 l 235 947 l 35 947 m 204 918 l 204 747 l 136 679 l 136 778 l 64 778 l 64 918 l 204 918 z "},"(":{"ha":510,"x_min":68,"x_max":501,"o":"m 386 1099 l 501 1019 q 465 956 478 979 q 383 759 401 829 q 357 550 364 689 q 356 485 356 518 q 357 419 356 451 q 383 212 364 282 q 465 15 401 142 q 501 -50 482 -18 l 385 -131 q 318 -69 363 -111 q 121 201 176 78 q 68 485 68 321 q 122 770 68 649 q 318 1039 176 892 q 386 1099 340 1058 m 340 1026 q 147 768 204 890 q 90 485 90 646 q 135 211 90 318 q 315 -36 183 96 q 385 -104 339 -61 l 474 -40 q 440 15 463 -22 q 358 218 375 153 q 333 419 340 283 q 331 550 329 513 q 356 758 338 688 q 438 951 375 828 q 472 1011 451 979 l 386 1069 q 340 1026 374 1058 m 388 1029 l 435 996 q 406 942 425 981 q 328 756 346 825 q 303 551 310 686 q 303 414 300 482 q 369 93 313 213 q 435 -18 389 53 l 388 -60 q 346 -24 371 -46 q 121 481 121 179 q 126 585 121 531 q 346 994 153 819 q 388 1029 371 1017 z "},")":{"ha":510,"x_min":14,"x_max":447,"o":"m 129 1099 l 14 1019 q 50 956 38 979 q 133 759 114 829 q 158 550 151 689 q 160 485 160 518 q 158 419 160 451 q 133 212 151 282 q 50 15 114 142 q 14 -50 33 -18 l 131 -131 q 197 -69 153 -111 q 394 201 339 78 q 447 485 447 321 q 393 770 447 649 q 197 1039 339 892 q 129 1099 175 1058 m 175 1026 q 368 768 311 890 q 425 485 425 646 q 381 211 425 318 q 200 -36 332 96 q 131 -104 176 -61 l 42 -40 q 75 15 53 -22 q 158 218 140 153 q 182 419 175 283 q 185 550 186 513 q 159 758 178 688 q 78 951 140 828 q 43 1011 64 979 l 129 1069 q 175 1026 142 1058 m 128 1029 l 81 996 q 110 942 90 981 q 188 756 169 825 q 213 551 206 686 q 213 414 215 482 q 146 93 203 213 q 81 -18 126 53 l 128 -60 q 169 -24 144 -46 q 394 481 394 179 q 389 585 394 531 q 169 994 363 819 q 128 1029 144 1017 z "},"*":{"ha":563,"x_min":19,"x_max":543,"o":"m 282 644 l 179 493 l 78 564 l 188 703 l 19 763 l 58 869 l 217 813 l 217 988 l 347 988 l 347 813 l 507 869 l 543 761 l 376 701 l 485 564 l 383 493 l 282 644 m 221 711 l 106 568 l 174 524 l 282 679 l 388 519 l 458 569 l 346 711 l 518 772 l 492 844 q 326 783 421 818 l 326 964 l 239 964 l 239 782 l 72 844 l 46 774 l 221 711 m 69 788 l 81 821 l 258 754 l 258 949 l 307 949 l 307 754 l 482 821 l 496 788 l 314 721 l 432 572 l 393 549 l 282 704 l 169 549 l 132 572 l 250 721 l 69 788 z "},"+":{"ha":682,"x_min":18,"x_max":665,"o":"m 451 163 l 232 163 l 232 378 l 18 378 l 18 596 l 232 596 l 232 810 l 451 810 l 451 596 l 665 596 l 665 378 l 451 378 l 451 163 m 426 786 l 256 786 l 256 572 l 40 572 l 40 401 l 256 401 l 256 185 l 426 185 l 426 401 l 642 401 l 642 572 l 426 572 l 426 786 m 397 217 l 397 431 l 613 431 l 613 543 l 397 543 l 397 757 l 285 757 l 285 543 l 72 543 l 72 431 l 285 431 l 285 217 l 397 217 z "},",":{"ha":257,"x_min":10,"x_max":258,"o":"m 10 0 l 10 249 l 258 249 l 258 1 l 79 -178 q 79 0 79 -179 l 10 0 m 104 24 l 104 -122 l 233 7 l 233 224 l 33 224 l 33 24 l 104 24 m 64 54 l 64 194 l 204 194 l 204 25 l 135 -44 l 135 54 l 64 54 z "},"-":{"ha":392,"x_min":18,"x_max":401,"o":"m 18 376 l 18 596 l 401 596 l 401 376 l 18 376 m 378 401 l 378 572 l 40 572 l 40 401 l 378 401 m 72 431 l 72 543 l 349 543 l 349 431 l 72 431 z "},".":{"ha":267,"x_min":10,"x_max":258,"o":"m 10 0 l 10 249 l 258 249 l 258 0 l 10 0 m 233 24 l 233 224 l 33 224 l 33 24 l 233 24 m 64 54 l 64 194 l 204 194 l 204 54 l 64 54 z "},"/":{"ha":772,"x_min":10,"x_max":763,"o":"m 10 0 l 496 972 l 763 972 l 276 0 l 10 0 m 264 24 l 726 949 l 511 949 l 50 24 l 264 24 m 96 54 l 528 918 l 676 918 l 243 54 l 96 54 z "},":":{"ha":267,"x_min":10,"x_max":258,"o":"m 10 438 l 10 686 l 258 686 l 258 438 l 10 438 m 10 0 l 10 249 l 258 249 l 258 0 l 10 0 m 233 461 l 233 661 l 33 661 l 33 461 l 233 461 m 233 24 l 233 224 l 33 224 l 33 24 l 233 24 m 64 54 l 64 194 l 204 194 l 204 54 l 64 54 m 64 492 l 64 632 l 204 632 l 204 492 l 64 492 z "},";":{"ha":267,"x_min":10,"x_max":258,"o":"m 10 0 l 10 249 l 258 249 l 258 0 l 81 -179 l 81 0 l 10 0 m 10 438 l 10 686 l 258 686 l 258 438 l 10 438 m 233 461 l 233 661 l 33 661 l 33 461 l 233 461 m 104 24 l 104 -124 l 233 6 l 233 224 l 33 224 l 33 24 l 104 24 m 64 54 l 64 194 l 204 194 l 204 25 l 135 -44 l 135 54 l 64 54 m 64 492 l 64 632 l 204 632 l 204 492 l 64 492 z "},"<":{"ha":778,"x_min":17,"x_max":749,"o":"m 679 174 l 299 440 l 679 704 l 614 796 l 104 439 l 614 82 l 679 174 m 17 438 l 626 867 l 749 692 l 386 439 l 749 186 l 626 13 l 17 438 m 50 439 l 621 44 l 718 182 l 351 440 l 719 696 l 621 835 l 50 439 z "},"=":{"ha":682,"x_min":18,"x_max":665,"o":"m 18 224 l 18 443 l 665 443 l 665 224 l 18 224 m 642 249 l 642 419 l 40 419 l 40 249 l 642 249 m 72 278 l 72 390 l 613 390 l 613 278 l 72 278 m 18 529 l 18 749 l 665 749 l 665 529 l 18 529 m 642 554 l 642 725 l 40 725 l 40 554 l 642 554 m 72 583 l 72 696 l 613 696 l 613 583 l 72 583 z "},">":{"ha":778,"x_min":26,"x_max":758,"o":"m 96 174 l 475 440 l 96 704 l 160 796 l 671 439 l 160 82 l 96 174 m 758 438 l 149 867 l 26 692 l 389 439 l 26 186 l 147 13 l 758 438 m 725 439 l 153 44 l 56 182 l 424 440 l 54 696 l 153 835 l 725 439 z "},"?":{"ha":690,"x_min":10,"x_max":681,"o":"m 10 624 l 10 817 l 165 974 l 525 974 l 681 818 l 681 557 l 494 368 l 494 267 l 199 267 l 199 431 l 414 647 l 414 704 l 383 736 l 308 736 l 276 703 l 276 624 l 10 624 m 199 0 l 199 218 l 490 218 l 490 0 l 199 0 m 465 24 l 465 196 l 222 196 l 222 24 l 465 24 m 253 647 l 253 708 l 303 758 l 392 758 l 440 711 l 440 644 l 222 426 l 222 289 l 469 289 l 469 372 l 657 560 l 657 813 l 519 949 l 169 949 l 33 813 l 33 647 l 253 647 m 251 54 l 251 165 l 436 165 l 436 54 l 251 54 m 64 678 l 64 790 l 192 918 l 499 918 l 626 789 l 626 579 l 438 390 l 438 318 l 251 318 l 251 408 l 465 622 l 465 726 l 404 788 l 283 788 l 222 726 l 222 678 l 64 678 z "},"@":{"ha":939,"x_min":49,"x_max":889,"o":"m 274 281 l 332 585 l 408 649 l 596 649 l 649 585 l 589 281 l 610 261 l 728 261 l 728 693 l 669 753 l 268 753 l 210 693 l 210 171 l 268 113 l 669 113 l 761 0 l 176 0 l 49 128 l 49 738 l 176 865 l 761 865 l 889 738 l 889 217 l 586 217 l 556 251 l 514 217 l 325 217 l 274 281 m 382 272 l 479 272 l 514 301 l 564 563 l 540 593 l 443 593 l 408 563 l 358 301 l 382 272 z "},"A":{"ha":965,"x_min":29,"x_max":925,"o":"m 29 0 l 29 218 l 88 218 l 265 753 l 222 753 l 222 972 l 739 972 l 739 753 l 690 753 l 868 218 l 925 218 l 925 0 l 553 0 l 553 218 l 586 218 l 571 264 l 385 264 l 368 218 l 401 218 l 401 0 l 29 0 m 378 24 l 378 196 l 342 196 l 364 286 l 592 286 l 613 196 l 576 196 l 576 24 l 903 24 l 903 196 l 847 196 l 661 776 l 715 776 l 715 949 l 246 949 l 246 776 l 293 776 l 107 196 l 53 196 l 53 24 l 378 24 m 83 54 l 83 165 l 125 165 l 338 807 l 276 807 l 276 918 l 686 918 l 686 807 l 618 807 l 831 165 l 872 165 l 872 54 l 607 54 l 607 165 l 660 165 l 610 317 l 344 317 l 294 165 l 347 165 l 347 54 l 83 54 m 582 397 l 478 714 l 371 397 l 582 397 m 418 425 l 478 618 l 536 425 l 418 425 m 510 450 l 478 543 l 446 450 l 510 450 z "},"B":{"ha":815,"x_min":10,"x_max":767,"o":"m 10 0 l 10 218 l 68 218 l 68 753 l 10 753 l 10 972 l 611 972 l 767 817 l 767 567 l 703 503 l 767 439 l 767 156 l 611 0 l 10 0 m 601 24 l 743 165 l 743 429 l 671 501 l 743 574 l 743 807 l 601 949 l 33 949 l 33 776 l 90 776 l 90 196 l 33 196 l 33 24 l 601 24 m 64 54 l 64 165 l 121 165 l 121 807 l 64 807 l 64 918 l 585 918 l 713 790 l 713 592 l 625 504 l 713 417 l 713 182 l 585 54 l 64 54 m 493 165 l 553 225 l 553 388 l 493 447 l 282 447 l 282 165 l 493 165 m 493 558 l 553 618 l 553 747 l 493 807 l 282 807 l 282 558 l 493 558 m 311 196 l 311 418 l 474 418 l 524 368 l 524 246 l 474 196 l 311 196 m 311 589 l 311 776 l 474 776 l 524 726 l 524 639 l 474 589 l 311 589 m 468 613 l 500 644 l 500 721 l 468 753 l 335 753 l 335 613 l 468 613 m 468 218 l 500 250 l 500 363 l 468 394 l 335 394 l 335 218 l 468 218 z "},"C":{"ha":836,"x_min":49,"x_max":788,"o":"m 49 156 l 49 817 l 204 972 l 632 972 l 788 817 l 788 600 l 519 600 l 519 722 l 489 753 l 346 753 l 315 722 l 315 250 l 347 218 l 489 218 l 519 249 l 519 365 l 788 365 l 788 156 l 632 0 l 204 0 l 49 156 m 214 24 l 626 24 l 764 161 l 764 343 l 543 343 l 543 244 l 494 196 l 342 196 l 293 244 l 293 728 l 342 776 l 494 776 l 543 728 l 543 621 l 764 621 l 764 811 l 625 950 l 210 950 l 72 811 l 72 165 l 214 24 m 103 182 l 103 790 l 231 918 l 607 918 l 735 790 l 735 653 l 574 653 l 574 746 l 513 807 l 322 807 l 263 747 l 263 225 l 322 165 l 513 165 l 574 226 l 574 314 l 738 314 l 738 182 l 610 54 l 231 54 l 103 182 z "},"D":{"ha":815,"x_min":10,"x_max":767,"o":"m 10 0 l 10 218 l 68 218 l 68 753 l 10 753 l 10 972 l 611 972 l 767 817 l 767 156 l 611 0 l 10 0 m 601 24 l 743 165 l 743 807 l 601 949 l 33 949 l 33 776 l 90 776 l 90 196 l 33 196 l 33 24 l 601 24 m 64 54 l 64 165 l 121 165 l 121 807 l 64 807 l 64 918 l 585 918 l 713 790 l 713 182 l 585 54 l 64 54 m 493 165 l 553 225 l 553 747 l 493 807 l 282 807 l 282 165 l 493 165 m 311 196 l 311 776 l 478 776 l 524 731 l 524 246 l 474 196 l 311 196 m 468 218 l 500 250 l 500 722 l 469 753 l 335 753 l 335 218 l 468 218 z "},"E":{"ha":772,"x_min":29,"x_max":743,"o":"m 29 0 l 29 218 l 88 218 l 88 753 l 29 753 l 29 972 l 743 972 l 743 714 l 525 714 l 525 753 l 354 753 l 354 596 l 393 596 l 393 633 l 613 633 l 613 339 l 393 339 l 393 376 l 354 376 l 354 218 l 525 218 l 525 258 l 743 258 l 743 0 l 29 0 m 719 24 l 719 235 l 547 235 l 547 196 l 331 196 l 331 401 l 417 401 l 417 363 l 589 363 l 589 610 l 417 610 l 417 571 l 331 571 l 331 776 l 547 776 l 547 738 l 719 738 l 719 949 l 53 949 l 53 776 l 110 776 l 110 196 l 53 196 l 53 24 l 719 24 m 83 54 l 83 165 l 140 165 l 140 807 l 83 807 l 83 918 l 690 918 l 690 768 l 578 768 l 578 807 l 301 807 l 301 542 l 447 542 l 447 581 l 558 581 l 558 392 l 447 392 l 447 431 l 301 431 l 301 165 l 578 165 l 578 204 l 690 204 l 690 54 l 83 54 z "},"F":{"ha":763,"x_min":10,"x_max":724,"o":"m 10 0 l 10 218 l 68 218 l 68 753 l 10 753 l 10 972 l 724 972 l 724 714 l 506 714 l 506 753 l 335 753 l 335 596 l 374 596 l 374 633 l 593 633 l 593 339 l 374 339 l 374 376 l 335 376 l 335 218 l 447 218 l 447 0 l 10 0 m 424 24 l 424 196 l 311 196 l 311 400 l 397 400 l 397 361 l 569 361 l 569 610 l 397 610 l 397 571 l 311 571 l 311 776 l 528 776 l 528 738 l 700 738 l 700 949 l 33 949 l 33 776 l 90 776 l 90 196 l 33 196 l 33 24 l 424 24 m 64 54 l 64 165 l 121 165 l 121 807 l 64 807 l 64 918 l 671 918 l 671 768 l 558 768 l 558 807 l 282 807 l 282 542 l 428 542 l 428 581 l 539 581 l 539 392 l 428 392 l 428 431 l 282 431 l 282 165 l 393 165 l 393 54 l 64 54 z "},"G":{"ha":835,"x_min":49,"x_max":786,"o":"m 49 156 l 49 817 l 204 972 l 629 972 l 786 815 l 786 600 l 518 600 l 518 722 l 488 753 l 346 753 l 315 722 l 315 250 l 347 218 l 488 218 l 518 249 l 518 342 l 444 342 l 444 540 l 786 540 l 786 158 l 629 0 l 204 0 l 49 156 m 213 24 l 622 24 l 761 163 l 761 517 l 468 517 l 468 365 l 542 365 l 542 244 l 493 196 l 342 196 l 293 244 l 293 728 l 342 776 l 493 776 l 542 728 l 542 622 l 761 622 l 761 808 l 621 949 l 211 949 l 72 810 l 72 164 l 213 24 m 103 182 l 103 792 l 229 918 l 604 918 l 732 790 l 732 653 l 571 653 l 571 747 l 511 807 l 322 807 l 263 747 l 263 225 l 322 165 l 511 165 l 571 225 l 571 394 l 500 394 l 500 488 l 732 488 l 732 182 l 604 54 l 231 54 l 103 182 z "},"H":{"ha":908,"x_min":10,"x_max":850,"o":"m 10 0 l 10 218 l 68 218 l 68 753 l 10 753 l 10 972 l 393 972 l 393 753 l 335 753 l 335 619 l 525 619 l 525 753 l 465 753 l 465 972 l 850 972 l 850 753 l 793 753 l 793 218 l 850 218 l 850 0 l 465 0 l 465 218 l 525 218 l 525 381 l 335 381 l 335 218 l 393 218 l 393 0 l 10 0 m 369 24 l 369 196 l 311 196 l 311 404 l 549 404 l 549 196 l 490 196 l 490 24 l 828 24 l 828 196 l 768 196 l 768 776 l 828 776 l 828 949 l 490 949 l 490 776 l 549 776 l 549 596 l 311 596 l 311 776 l 369 776 l 369 949 l 33 949 l 33 776 l 90 776 l 90 196 l 33 196 l 33 24 l 369 24 m 64 54 l 64 165 l 121 165 l 121 807 l 64 807 l 64 918 l 340 918 l 340 807 l 282 807 l 282 567 l 578 567 l 578 807 l 519 807 l 519 918 l 797 918 l 797 807 l 739 807 l 739 165 l 797 165 l 797 54 l 519 54 l 519 165 l 578 165 l 578 435 l 282 435 l 282 165 l 340 165 l 340 54 l 64 54 z "},"I":{"ha":481,"x_min":29,"x_max":413,"o":"m 29 0 l 29 218 l 88 218 l 88 753 l 29 753 l 29 972 l 413 972 l 413 753 l 354 753 l 354 218 l 413 218 l 413 0 l 29 0 m 389 24 l 389 194 l 329 194 l 329 776 l 389 776 l 389 949 l 53 949 l 53 776 l 111 776 l 111 194 l 53 194 l 53 24 l 389 24 m 83 54 l 83 165 l 140 165 l 140 807 l 83 807 l 83 918 l 360 918 l 360 807 l 301 807 l 301 165 l 360 165 l 360 54 l 83 54 z "},"J":{"ha":743,"x_min":10,"x_max":733,"o":"m 10 156 l 10 390 l 276 390 l 276 250 l 308 218 l 376 218 l 408 250 l 408 753 l 325 753 l 325 972 l 733 972 l 733 753 l 675 753 l 675 156 l 519 0 l 165 0 l 10 156 m 172 24 l 514 24 l 650 160 l 650 776 l 710 776 l 710 949 l 349 949 l 349 776 l 432 776 l 432 243 l 383 196 l 301 196 l 253 243 l 253 367 l 33 367 l 33 163 l 172 24 m 64 171 l 64 338 l 222 338 l 222 226 l 283 165 l 401 165 l 461 225 l 461 807 l 379 807 l 379 918 l 681 918 l 681 807 l 622 807 l 622 171 l 493 43 l 193 43 l 64 171 z "},"K":{"ha":1007,"x_min":10,"x_max":910,"o":"m 10 0 l 10 218 l 68 218 l 68 753 l 10 753 l 10 972 l 393 972 l 393 753 l 335 753 l 335 615 l 472 753 l 449 753 l 449 972 l 910 972 l 910 753 l 829 753 l 565 489 l 836 218 l 910 218 l 910 0 l 449 0 l 449 218 l 475 218 l 381 313 l 336 268 l 336 218 l 394 218 l 394 0 l 10 0 m 371 24 l 371 196 l 311 196 l 311 274 l 381 343 l 528 196 l 472 196 l 472 24 l 885 24 l 885 196 l 826 196 l 533 489 l 821 776 l 886 776 l 886 949 l 472 949 l 472 776 l 528 776 l 311 560 l 311 776 l 369 776 l 369 949 l 33 949 l 33 776 l 90 776 l 90 196 l 33 196 l 33 24 l 371 24 m 64 54 l 64 165 l 121 165 l 121 807 l 64 807 l 64 918 l 340 918 l 340 807 l 282 807 l 282 485 l 604 807 l 501 807 l 501 918 l 856 918 l 856 807 l 797 807 l 476 486 l 797 165 l 856 165 l 856 54 l 501 54 l 501 165 l 606 165 l 382 390 l 282 289 l 282 165 l 342 165 l 342 54 l 64 54 z "},"L":{"ha":817,"x_min":29,"x_max":749,"o":"m 29 0 l 29 218 l 88 218 l 88 753 l 29 753 l 29 972 l 413 972 l 413 753 l 354 753 l 354 218 l 529 218 l 529 276 l 749 276 l 749 0 l 29 0 m 725 24 l 725 251 l 553 251 l 553 194 l 329 194 l 329 776 l 389 776 l 389 949 l 53 949 l 53 776 l 111 776 l 111 196 l 54 196 l 54 24 l 725 24 m 83 54 l 83 165 l 140 165 l 140 807 l 83 807 l 83 918 l 360 918 l 360 807 l 301 807 l 301 165 l 582 165 l 582 224 l 694 224 l 694 54 l 83 54 z "},"M":{"ha":1142,"x_min":10,"x_max":1085,"o":"m 10 0 l 10 218 l 68 218 l 68 753 l 10 753 l 10 972 l 321 972 l 547 596 l 772 972 l 1085 972 l 1085 753 l 1026 753 l 1026 218 l 1085 218 l 1085 0 l 701 0 l 701 218 l 758 218 l 758 471 l 547 119 l 335 471 l 335 218 l 393 218 l 393 0 l 10 0 m 369 24 l 369 196 l 311 196 l 311 547 l 547 151 l 782 561 l 782 196 l 724 196 l 724 24 l 1061 24 l 1061 196 l 1003 196 l 1003 776 l 1061 776 l 1061 949 l 778 949 l 547 563 l 315 949 l 33 949 l 33 776 l 90 776 l 90 196 l 33 196 l 33 24 l 369 24 m 64 54 l 64 165 l 121 165 l 121 807 l 64 807 l 64 918 l 279 918 l 547 474 l 814 918 l 1032 918 l 1032 807 l 972 807 l 972 165 l 1032 165 l 1032 54 l 754 54 l 754 165 l 813 165 l 813 654 l 547 211 l 282 654 l 282 165 l 340 165 l 340 54 l 64 54 z "},"N":{"ha":957,"x_min":10,"x_max":918,"o":"m 10 0 l 10 218 l 68 218 l 68 753 l 10 753 l 10 972 l 325 972 l 593 526 l 593 753 l 535 753 l 535 972 l 918 972 l 918 753 l 860 753 l 860 218 l 918 218 l 918 0 l 597 0 l 335 435 l 335 218 l 393 218 l 393 0 l 10 0 m 369 22 l 369 196 l 311 196 l 311 518 l 608 22 l 894 22 l 894 196 l 836 196 l 836 776 l 894 776 l 894 949 l 558 949 l 558 776 l 617 776 l 617 444 l 314 949 l 33 949 l 33 776 l 90 776 l 90 196 l 33 196 l 33 22 l 369 22 m 64 54 l 64 165 l 121 165 l 121 807 l 64 807 l 64 918 l 288 918 l 647 321 l 647 807 l 588 807 l 588 918 l 865 918 l 865 807 l 806 807 l 806 165 l 865 165 l 865 54 l 633 54 l 282 640 l 282 165 l 340 165 l 340 54 l 64 54 z "},"O":{"ha":846,"x_min":58,"x_max":797,"o":"m 58 156 l 58 817 l 214 972 l 642 972 l 797 817 l 797 156 l 642 0 l 214 0 l 58 156 m 222 25 l 635 25 l 774 164 l 774 807 l 632 949 l 222 949 l 83 810 l 83 164 l 222 25 m 113 182 l 113 790 l 240 918 l 617 918 l 744 790 l 744 182 l 617 54 l 240 54 l 113 182 m 332 165 l 524 165 l 583 225 l 583 746 l 522 807 l 332 807 l 272 747 l 272 225 l 332 165 m 301 243 l 301 729 l 350 778 l 506 778 l 554 729 l 554 243 l 506 194 l 350 194 l 301 243 m 357 218 l 499 218 l 529 249 l 529 722 l 499 753 l 356 753 l 325 722 l 325 250 l 357 218 z "},"P":{"ha":835,"x_min":10,"x_max":767,"o":"m 10 0 l 10 218 l 68 218 l 68 753 l 10 753 l 10 972 l 611 972 l 767 817 l 767 524 l 611 368 l 335 368 l 335 218 l 393 218 l 393 0 l 10 0 m 369 24 l 369 196 l 311 196 l 311 392 l 604 392 l 743 532 l 743 808 l 601 950 l 33 950 l 33 776 l 90 776 l 90 196 l 33 196 l 33 24 l 369 24 m 64 54 l 64 165 l 121 165 l 121 807 l 64 807 l 64 918 l 585 918 l 713 790 l 713 550 l 585 421 l 282 421 l 282 165 l 340 165 l 340 54 l 64 54 m 492 533 l 553 594 l 553 747 l 493 807 l 282 807 l 282 533 l 492 533 m 311 564 l 311 776 l 475 776 l 524 728 l 524 614 l 475 564 l 311 564 m 469 588 l 500 618 l 500 722 l 469 753 l 335 753 l 335 588 l 469 588 z "},"Q":{"ha":836,"x_min":49,"x_max":890,"o":"m 49 156 l 49 817 l 204 972 l 632 972 l 788 817 l 788 278 l 890 175 l 743 28 l 701 69 l 632 0 l 204 0 l 49 156 m 208 25 l 626 25 l 701 101 l 742 61 l 857 175 l 761 271 l 761 808 l 624 946 l 213 946 l 72 806 l 72 161 l 208 25 m 103 182 l 103 790 l 231 918 l 607 918 l 735 790 l 735 253 l 813 175 l 742 104 l 699 147 l 606 54 l 231 54 l 103 182 m 322 165 l 513 165 l 574 226 l 574 271 l 435 410 l 507 483 l 574 415 l 574 747 l 514 807 l 322 807 l 263 747 l 263 225 l 322 165 m 290 247 l 290 731 l 338 778 l 496 778 l 544 729 l 544 494 l 510 529 l 390 410 l 543 257 l 543 244 l 494 196 l 342 196 l 290 247 m 347 218 l 489 218 l 521 251 l 361 411 l 508 557 l 519 546 l 519 722 l 489 753 l 346 753 l 315 722 l 315 250 l 347 218 z "},"R":{"ha":883,"x_min":19,"x_max":835,"o":"m 19 0 l 19 218 l 78 218 l 78 753 l 19 753 l 19 972 l 621 972 l 776 817 l 776 567 l 713 504 l 776 440 l 776 218 l 835 218 l 835 0 l 510 0 l 510 365 l 479 394 l 344 394 l 344 218 l 403 218 l 403 0 l 19 0 m 379 24 l 379 196 l 321 196 l 321 418 l 490 418 l 533 375 l 533 24 l 810 24 l 810 196 l 753 196 l 753 431 l 679 506 l 753 581 l 753 807 l 611 949 l 43 949 l 43 776 l 100 776 l 100 196 l 43 196 l 43 24 l 379 24 m 74 54 l 74 165 l 131 165 l 131 807 l 74 807 l 74 918 l 596 918 l 722 790 l 722 594 l 635 506 l 722 417 l 722 165 l 781 165 l 781 54 l 563 54 l 563 388 l 503 447 l 292 447 l 292 165 l 350 165 l 350 54 l 74 54 m 501 558 l 563 619 l 563 749 l 503 807 l 292 807 l 292 558 l 501 558 m 321 589 l 321 776 l 483 776 l 533 726 l 533 638 l 483 589 l 321 589 m 478 613 l 510 643 l 510 721 l 478 753 l 344 753 l 344 613 l 478 613 z "},"S":{"ha":836,"x_min":49,"x_max":788,"o":"m 49 156 l 49 342 l 315 342 l 315 250 l 349 218 l 488 218 l 519 249 l 519 344 l 489 374 l 204 374 l 49 529 l 49 817 l 204 972 l 632 972 l 788 817 l 788 625 l 519 625 l 519 722 l 489 753 l 344 753 l 315 722 l 315 624 l 346 593 l 632 593 l 788 438 l 788 156 l 632 0 l 204 0 l 49 156 m 211 24 l 625 24 l 764 161 l 764 433 l 626 569 l 340 569 l 293 618 l 293 728 l 340 776 l 494 776 l 543 728 l 543 649 l 764 649 l 764 811 l 626 949 l 210 949 l 72 811 l 72 535 l 210 397 l 494 397 l 543 350 l 543 244 l 493 196 l 342 196 l 293 244 l 293 318 l 72 318 l 72 161 l 211 24 m 103 182 l 103 289 l 263 289 l 263 225 l 322 165 l 514 165 l 574 226 l 574 365 l 513 428 l 232 428 l 103 557 l 103 790 l 231 918 l 606 918 l 735 788 l 735 678 l 574 678 l 574 744 l 513 807 l 322 807 l 263 747 l 263 600 l 322 540 l 606 540 l 735 410 l 735 182 l 608 54 l 229 54 l 103 182 z "},"T":{"ha":899,"x_min":19,"x_max":840,"o":"m 19 696 l 19 972 l 840 972 l 840 696 l 621 696 l 621 753 l 564 753 l 564 218 l 621 218 l 621 0 l 238 0 l 238 218 l 296 218 l 296 753 l 238 753 l 238 696 l 19 696 m 214 718 l 214 776 l 319 776 l 319 196 l 261 196 l 261 24 l 599 24 l 599 196 l 540 196 l 540 776 l 646 776 l 646 718 l 817 718 l 817 949 l 43 949 l 43 718 l 214 718 m 74 749 l 74 918 l 788 918 l 788 749 l 675 749 l 675 807 l 511 807 l 511 165 l 568 165 l 568 54 l 292 54 l 292 165 l 350 165 l 350 807 l 183 807 l 183 749 l 74 749 z "},"U":{"ha":974,"x_min":40,"x_max":896,"o":"m 40 753 l 40 972 l 424 972 l 424 753 l 365 753 l 365 249 l 396 218 l 539 218 l 569 249 l 569 753 l 511 753 l 511 972 l 896 972 l 896 753 l 836 753 l 836 156 l 682 0 l 254 0 l 99 156 l 99 753 l 40 753 m 121 776 l 121 161 l 258 24 l 678 24 l 814 160 l 814 776 l 871 776 l 871 949 l 535 949 l 535 776 l 594 776 l 594 244 l 544 196 l 392 196 l 342 246 l 342 776 l 400 776 l 400 949 l 64 949 l 64 776 l 121 776 m 94 807 l 94 918 l 371 918 l 371 807 l 313 807 l 313 225 l 372 165 l 563 165 l 624 226 l 624 807 l 565 807 l 565 918 l 842 918 l 842 807 l 783 807 l 783 182 l 656 54 l 281 54 l 151 183 l 151 807 l 94 807 z "},"V":{"ha":1033,"x_min":21,"x_max":965,"o":"m 21 753 l 21 972 l 413 972 l 413 753 l 379 753 l 488 429 l 596 753 l 564 753 l 564 972 l 965 972 l 965 753 l 879 753 l 701 218 l 751 218 l 751 0 l 233 0 l 233 218 l 276 218 l 99 753 l 21 753 m 106 776 l 303 196 l 257 196 l 257 24 l 728 24 l 728 196 l 674 196 l 872 776 l 943 776 l 943 949 l 588 949 l 588 776 l 624 776 l 488 385 l 353 776 l 389 776 l 389 949 l 44 949 l 44 776 l 106 776 m 75 807 l 75 918 l 360 918 l 360 807 l 306 807 l 488 258 l 671 807 l 618 807 l 618 918 l 913 918 l 913 807 l 842 807 l 628 165 l 697 165 l 697 54 l 286 54 l 286 165 l 349 165 l 135 807 l 75 807 z "},"W":{"ha":1631,"x_min":10,"x_max":1542,"o":"m 10 753 l 10 972 l 415 972 l 415 753 l 376 753 l 485 428 l 590 753 l 558 753 l 558 972 l 994 972 l 994 753 l 963 753 l 1069 432 l 1176 753 l 1143 753 l 1143 972 l 1542 972 l 1542 753 l 1465 753 l 1288 218 l 1319 218 l 1319 0 l 822 0 l 822 218 l 854 218 l 776 439 l 699 218 l 731 218 l 731 0 l 233 0 l 233 218 l 265 218 l 88 753 l 10 753 m 99 776 l 297 196 l 257 196 l 257 24 l 707 24 l 707 196 l 671 196 l 776 488 l 882 196 l 846 196 l 846 24 l 1296 24 l 1296 196 l 1256 196 l 1454 776 l 1518 776 l 1518 949 l 1167 949 l 1167 776 l 1204 776 l 1069 369 l 933 776 l 969 776 l 969 949 l 582 949 l 582 776 l 619 776 l 483 369 l 349 776 l 393 776 l 393 949 l 33 949 l 33 776 l 99 776 m 64 807 l 64 918 l 363 918 l 363 807 l 301 807 l 483 260 l 667 807 l 611 807 l 611 918 l 940 918 l 940 807 l 886 807 l 1069 260 l 1251 807 l 1197 807 l 1197 918 l 1489 918 l 1489 807 l 1422 807 l 1208 165 l 1267 165 l 1267 54 l 876 54 l 876 165 l 931 165 l 776 626 l 622 165 l 678 165 l 678 54 l 286 54 l 286 165 l 344 165 l 131 807 l 64 807 z "},"X":{"ha":1085,"x_min":10,"x_max":1075,"o":"m 10 0 l 10 218 l 99 218 l 368 486 l 100 753 l 10 753 l 10 972 l 471 972 l 471 753 l 463 753 l 550 667 l 636 753 l 626 753 l 626 972 l 1075 972 l 1075 753 l 1000 753 l 731 486 l 1000 218 l 1075 218 l 1075 0 l 626 0 l 626 218 l 638 218 l 550 306 l 463 218 l 471 218 l 471 0 l 10 0 m 447 24 l 447 196 l 415 196 l 550 333 l 688 196 l 650 196 l 650 24 l 1051 24 l 1051 196 l 990 196 l 701 486 l 993 776 l 1051 776 l 1051 949 l 650 949 l 650 776 l 688 776 l 550 639 l 411 776 l 447 776 l 447 949 l 33 949 l 33 776 l 106 776 l 396 486 l 107 196 l 33 196 l 33 24 l 447 24 m 64 54 l 64 165 l 124 165 l 444 486 l 122 807 l 64 807 l 64 918 l 417 918 l 417 807 l 332 807 l 549 590 l 765 807 l 681 807 l 681 918 l 1022 918 l 1022 807 l 974 807 l 654 486 l 972 165 l 1022 165 l 1022 54 l 681 54 l 681 165 l 765 165 l 549 383 l 332 165 l 417 165 l 417 54 l 64 54 z "},"Y":{"ha":1133,"x_min":10,"x_max":1075,"o":"m 10 753 l 10 972 l 471 972 l 471 753 l 463 753 l 550 667 l 638 753 l 626 753 l 626 972 l 1075 972 l 1075 753 l 996 753 l 682 439 l 682 218 l 740 218 l 740 0 l 358 0 l 358 218 l 415 218 l 415 439 l 101 753 l 10 753 m 111 776 l 439 449 l 439 196 l 381 196 l 381 22 l 718 22 l 718 196 l 658 196 l 658 449 l 988 776 l 1051 776 l 1051 949 l 650 949 l 650 776 l 693 776 l 550 633 l 407 776 l 447 776 l 447 949 l 33 949 l 33 776 l 111 776 m 64 807 l 64 918 l 417 918 l 417 807 l 332 807 l 549 590 l 765 807 l 681 807 l 681 918 l 1022 918 l 1022 807 l 978 807 l 629 461 l 629 165 l 688 165 l 688 43 l 411 43 l 411 165 l 469 165 l 469 461 l 122 807 l 64 807 z "},"Z":{"ha":785,"x_min":10,"x_max":736,"o":"m 10 0 l 10 185 l 389 753 l 228 753 l 228 696 l 10 696 l 10 972 l 736 972 l 736 788 l 357 218 l 517 218 l 517 276 l 736 276 l 736 0 l 10 0 m 713 24 l 713 253 l 540 253 l 540 196 l 324 196 l 713 793 l 713 949 l 33 949 l 33 718 l 204 718 l 204 776 l 422 776 l 33 179 l 33 24 l 713 24 m 64 54 l 64 165 l 490 807 l 174 807 l 174 749 l 64 749 l 64 918 l 682 918 l 682 807 l 254 165 l 569 165 l 569 224 l 682 224 l 682 54 l 64 54 z "},"[":{"ha":401,"x_min":19,"x_max":389,"o":"m 258 119 l 389 119 l 389 -99 l 19 -99 l 19 1078 l 389 1078 l 389 860 l 258 860 l 258 119 m 43 -72 l 365 -72 l 365 94 l 235 94 l 233 885 l 365 885 l 365 1053 l 43 1053 l 43 -72 m 206 67 l 335 67 l 335 -44 l 72 -44 l 72 1024 l 335 1024 l 335 913 l 206 913 l 206 67 z "},"\\":{"ha":772,"x_min":10,"x_max":763,"o":"m 763 0 l 276 972 l 10 972 l 496 0 l 763 0 m 515 24 l 50 949 l 257 949 l 722 24 l 515 24 m 676 54 l 244 918 l 96 918 l 529 54 l 676 54 z "},"]":{"ha":401,"x_min":19,"x_max":389,"o":"m 150 119 l 19 119 l 19 -99 l 389 -99 l 389 1078 l 19 1078 l 19 860 l 150 860 l 150 119 m 365 -72 l 43 -72 l 43 94 l 174 94 l 174 885 l 43 885 l 43 1053 l 365 1053 l 365 -72 m 203 67 l 74 67 l 74 -44 l 335 -44 l 335 1024 l 74 1024 l 74 913 l 203 913 l 203 67 z "},"^":{"ha":746,"x_min":-32,"x_max":778,"o":"m 778 397 l 551 397 l 374 754 l 193 397 l -32 397 l 269 972 l 475 972 l 778 397 z "},"_":{"ha":604,"x_min":-7,"x_max":604,"o":"m 604 -278 l -7 -278 l -7 -194 l 604 -194 l 604 -278 z "},"`":{"ha":538,"x_min":96,"x_max":413,"o":"m 413 778 l 321 718 l 96 903 l 231 992 l 413 778 z "},"a":{"ha":808,"x_min":10,"x_max":800,"o":"m 10 0 l 10 113 l 51 113 l 265 753 l 203 753 l 203 865 l 613 865 l 613 753 l 544 753 l 757 113 l 800 113 l 800 0 l 533 0 l 533 113 l 588 113 l 536 264 l 271 264 l 221 113 l 275 113 l 275 0 l 10 0 m 510 343 l 404 661 l 299 343 l 510 343 z "},"b":{"ha":708,"x_min":10,"x_max":660,"o":"m 10 0 l 10 113 l 68 113 l 68 753 l 10 753 l 10 865 l 532 865 l 660 738 l 660 538 l 572 450 l 660 363 l 660 128 l 532 0 l 10 0 m 439 113 l 500 171 l 500 333 l 439 394 l 228 394 l 228 113 l 439 113 m 439 506 l 500 565 l 500 693 l 439 753 l 228 753 l 228 506 l 439 506 z "},"c":{"ha":729,"x_min":49,"x_max":681,"o":"m 49 128 l 49 738 l 176 865 l 553 865 l 681 738 l 681 599 l 519 599 l 519 693 l 461 753 l 268 753 l 210 693 l 210 171 l 268 113 l 461 113 l 519 171 l 519 260 l 681 260 l 681 128 l 553 0 l 176 0 l 49 128 z "},"d":{"ha":708,"x_min":10,"x_max":660,"o":"m 10 0 l 10 113 l 68 113 l 68 753 l 10 753 l 10 865 l 532 865 l 660 738 l 660 128 l 532 0 l 10 0 m 439 113 l 500 171 l 500 693 l 439 753 l 228 753 l 228 113 l 439 113 z "},"e":{"ha":626,"x_min":10,"x_max":617,"o":"m 10 0 l 10 113 l 68 113 l 68 753 l 10 753 l 10 865 l 617 865 l 617 714 l 506 714 l 506 753 l 228 753 l 228 488 l 374 488 l 374 526 l 486 526 l 486 339 l 374 339 l 374 376 l 228 376 l 228 113 l 506 113 l 506 151 l 617 151 l 617 0 l 10 0 z "},"f":{"ha":626,"x_min":10,"x_max":617,"o":"m 10 0 l 10 113 l 68 113 l 68 753 l 10 753 l 10 865 l 617 865 l 617 714 l 506 714 l 506 753 l 228 753 l 228 488 l 374 488 l 374 526 l 486 526 l 486 339 l 374 339 l 374 376 l 228 376 l 228 113 l 340 113 l 340 0 l 10 0 z "},"g":{"ha":726,"x_min":49,"x_max":678,"o":"m 49 128 l 49 738 l 176 865 l 551 865 l 678 738 l 678 599 l 518 599 l 518 693 l 458 753 l 268 753 l 210 693 l 210 171 l 268 113 l 458 113 l 518 171 l 518 342 l 446 342 l 446 433 l 678 433 l 678 128 l 551 0 l 176 0 l 49 128 z "},"h":{"ha":753,"x_min":10,"x_max":744,"o":"m 10 0 l 10 113 l 68 113 l 68 753 l 10 753 l 10 865 l 286 865 l 286 753 l 228 753 l 228 513 l 525 513 l 525 753 l 465 753 l 465 865 l 744 865 l 744 753 l 685 753 l 685 113 l 744 113 l 744 0 l 465 0 l 465 113 l 525 113 l 525 381 l 228 381 l 228 113 l 286 113 l 286 0 l 10 0 z "},"i":{"ha":296,"x_min":10,"x_max":286,"o":"m 10 0 l 10 113 l 68 113 l 68 753 l 10 753 l 10 865 l 286 865 l 286 753 l 228 753 l 228 113 l 286 113 l 286 0 l 10 0 z "},"j":{"ha":636,"x_min":10,"x_max":626,"o":"m 10 119 l 10 283 l 169 283 l 169 171 l 229 113 l 349 113 l 408 171 l 408 753 l 325 753 l 325 865 l 626 865 l 626 753 l 568 753 l 568 119 l 440 -10 l 138 -10 l 10 119 z "},"k":{"ha":811,"x_min":10,"x_max":801,"o":"m 10 0 l 10 113 l 68 113 l 68 753 l 10 753 l 10 865 l 286 865 l 286 753 l 228 753 l 228 431 l 551 753 l 449 753 l 449 865 l 801 865 l 801 753 l 744 753 l 424 432 l 744 113 l 801 113 l 801 0 l 449 0 l 449 113 l 553 113 l 326 336 l 228 238 l 228 113 l 288 113 l 288 0 l 10 0 z "},"l":{"ha":632,"x_min":10,"x_max":622,"o":"m 10 0 l 10 113 l 68 113 l 68 753 l 10 753 l 10 865 l 286 865 l 286 753 l 228 753 l 228 113 l 510 113 l 510 169 l 622 169 l 622 0 l 10 0 z "},"m":{"ha":988,"x_min":10,"x_max":978,"o":"m 10 0 l 10 113 l 68 113 l 68 753 l 10 753 l 10 865 l 226 865 l 494 419 l 760 865 l 978 865 l 978 753 l 919 753 l 919 113 l 978 113 l 978 0 l 701 0 l 701 113 l 758 113 l 758 600 l 494 158 l 228 600 l 228 113 l 286 113 l 286 0 l 10 0 z "},"n":{"ha":821,"x_min":10,"x_max":811,"o":"m 10 0 l 10 113 l 68 113 l 68 753 l 10 753 l 10 865 l 233 865 l 593 267 l 593 753 l 535 753 l 535 865 l 811 865 l 811 753 l 753 753 l 753 113 l 811 113 l 811 0 l 581 0 l 228 586 l 228 113 l 286 113 l 286 0 l 10 0 z "},"o":{"ha":729,"x_min":49,"x_max":681,"o":"m 49 128 l 49 738 l 176 865 l 553 865 l 681 738 l 681 128 l 553 0 l 176 0 l 49 128 m 268 113 l 461 113 l 519 171 l 519 693 l 461 753 l 268 753 l 210 693 l 210 171 l 268 113 z "},"p":{"ha":669,"x_min":10,"x_max":660,"o":"m 10 0 l 10 113 l 68 113 l 68 753 l 10 753 l 10 865 l 532 865 l 660 738 l 660 497 l 532 368 l 228 368 l 228 113 l 286 113 l 286 0 l 10 0 m 439 481 l 500 540 l 500 693 l 439 753 l 228 753 l 228 481 l 439 481 z "},"q":{"ha":731,"x_min":49,"x_max":760,"o":"m 49 128 l 49 738 l 176 865 l 553 865 l 681 738 l 681 203 l 760 122 l 689 50 l 646 93 l 553 0 l 176 0 l 49 128 m 268 113 l 461 113 l 519 171 l 519 218 l 383 357 l 456 428 l 519 363 l 519 693 l 461 753 l 268 753 l 210 693 l 210 171 l 268 113 z "},"r":{"ha":728,"x_min":10,"x_max":718,"o":"m 10 0 l 10 113 l 68 113 l 68 753 l 10 753 l 10 865 l 532 865 l 660 738 l 660 538 l 572 450 l 660 363 l 660 113 l 718 113 l 718 0 l 500 0 l 500 333 l 439 394 l 228 394 l 228 113 l 286 113 l 286 0 l 10 0 m 439 506 l 500 565 l 500 693 l 439 753 l 228 753 l 228 506 l 439 506 z "},"s":{"ha":729,"x_min":49,"x_max":681,"o":"m 49 128 l 49 235 l 210 235 l 210 171 l 268 113 l 461 113 l 519 171 l 519 315 l 461 374 l 176 374 l 49 503 l 49 738 l 176 865 l 553 865 l 681 738 l 681 625 l 519 625 l 519 693 l 461 753 l 268 753 l 210 693 l 210 547 l 268 486 l 553 486 l 681 358 l 681 128 l 553 0 l 176 0 l 49 128 z "},"t":{"ha":733,"x_min":10,"x_max":724,"o":"m 10 696 l 10 865 l 724 865 l 724 696 l 611 696 l 611 753 l 447 753 l 447 113 l 506 113 l 506 0 l 228 0 l 228 113 l 286 113 l 286 753 l 121 753 l 121 696 l 10 696 z "},"u":{"ha":767,"x_min":10,"x_max":757,"o":"m 10 753 l 10 865 l 286 865 l 286 753 l 228 753 l 228 171 l 289 113 l 479 113 l 539 171 l 539 753 l 481 753 l 481 865 l 757 865 l 757 753 l 700 753 l 700 128 l 571 0 l 196 0 l 68 128 l 68 753 l 10 753 z "},"v":{"ha":857,"x_min":10,"x_max":849,"o":"m 10 753 l 10 865 l 294 865 l 294 753 l 240 753 l 424 204 l 607 753 l 553 753 l 553 865 l 849 865 l 849 753 l 778 753 l 563 113 l 632 113 l 632 0 l 222 0 l 222 113 l 285 113 l 71 753 l 10 753 z "},"w":{"ha":1444,"x_min":10,"x_max":1435,"o":"m 10 753 l 10 865 l 310 865 l 310 753 l 247 753 l 431 206 l 613 753 l 558 753 l 558 865 l 886 865 l 886 753 l 833 753 l 1015 206 l 1197 753 l 1143 753 l 1143 865 l 1435 865 l 1435 753 l 1368 753 l 1154 113 l 1213 113 l 1213 0 l 822 0 l 822 113 l 876 113 l 722 572 l 569 113 l 624 113 l 624 0 l 233 0 l 233 113 l 292 113 l 76 753 l 10 753 z "},"x":{"ha":978,"x_min":10,"x_max":968,"o":"m 10 0 l 10 113 l 71 113 l 392 432 l 71 753 l 10 753 l 10 865 l 364 865 l 364 753 l 278 753 l 496 536 l 711 753 l 626 753 l 626 865 l 968 865 l 968 753 l 921 753 l 600 432 l 921 113 l 968 113 l 968 0 l 626 0 l 626 113 l 711 113 l 496 328 l 278 113 l 364 113 l 364 0 l 10 0 z "},"y":{"ha":881,"x_min":10,"x_max":871,"o":"m 10 753 l 10 865 l 364 865 l 364 753 l 278 753 l 447 536 l 614 753 l 529 753 l 529 865 l 871 865 l 871 753 l 824 753 l 526 408 l 526 113 l 585 113 l 585 -10 l 310 -10 l 310 113 l 367 113 l 367 408 l 71 753 l 10 753 z "},"z":{"ha":639,"x_min":10,"x_max":629,"o":"m 10 0 l 10 113 l 438 753 l 121 753 l 121 696 l 10 696 l 10 865 l 629 865 l 629 753 l 201 113 l 517 113 l 517 169 l 629 169 l 629 0 l 10 0 z "},"{":{"ha":476,"x_min":14,"x_max":460,"o":"m 407 -46 l 407 71 l 331 71 q 286 90 296 71 q 279 132 279 101 l 279 369 q 183 492 279 479 l 183 493 q 279 603 279 507 l 279 844 q 331 906 279 906 l 407 906 l 407 1022 l 271 1022 q 193 985 232 1022 q 146 863 146 938 l 146 601 q 68 546 146 546 l 68 439 q 115 433 104 439 q 146 374 146 421 l 146 111 q 193 -8 146 38 q 271 -46 232 -46 l 407 -46 m 19 385 l 14 385 l 14 600 l 19 600 l 92 599 l 92 861 q 156 1022 92 960 q 271 1075 210 1075 l 460 1075 l 460 853 l 333 853 l 332 603 q 296 493 332 535 q 332 369 332 449 l 332 132 q 333 124 332 124 l 460 124 l 460 -99 l 271 -99 q 156 -47 210 -99 q 92 111 92 15 l 92 385 q 19 385 92 385 m 331 876 l 436 876 l 436 1051 l 271 1051 q 169 1008 214 1051 q 117 864 117 956 l 117 583 q 38 576 111 575 l 38 408 l 101 408 q 115 385 117 407 l 115 381 q 115 375 115 378 q 115 111 115 372 q 169 -33 115 19 q 271 -75 214 -75 l 436 -75 l 436 100 l 335 100 q 308 132 308 100 l 308 369 q 269 493 308 449 q 308 603 308 536 l 308 851 q 315 867 311 858 q 331 876 319 876 z "},"|":{"ha":310,"x_min":22,"x_max":290,"o":"m 22 0 l 22 974 l 290 974 l 290 0 l 22 0 m 265 24 l 265 949 l 49 949 l 49 24 l 265 24 m 82 54 l 82 918 l 229 918 l 229 54 l 82 54 z "},"}":{"ha":476,"x_min":14,"x_max":460,"o":"m 68 -46 l 68 71 l 144 71 q 189 90 178 71 q 196 132 196 101 l 196 369 q 290 492 196 479 l 290 493 q 196 603 196 507 l 196 844 q 144 906 196 906 l 68 906 l 68 1022 l 203 1022 q 281 985 243 1022 q 329 863 329 938 l 329 601 q 407 546 329 546 l 407 439 q 360 433 371 439 q 329 374 329 419 l 329 111 q 281 -8 329 38 q 203 -46 243 -46 l 68 -46 m 456 385 l 460 385 l 460 600 l 456 600 l 383 599 l 382 861 q 318 1022 382 960 q 203 1075 264 1075 l 14 1075 l 14 853 l 142 853 l 142 603 q 178 493 142 535 q 142 369 142 449 l 142 132 q 142 124 142 124 l 14 124 l 14 -99 l 203 -99 q 318 -47 264 -99 q 382 111 382 15 l 382 385 q 456 385 383 385 m 144 876 l 38 876 l 38 1051 l 203 1051 q 304 1008 260 1051 q 357 864 357 956 l 357 593 q 374 576 354 579 q 436 576 382 575 l 436 408 l 374 408 q 358 385 357 407 l 360 381 q 358 374 358 378 q 358 111 358 372 q 304 -33 358 19 q 203 -75 260 -75 l 38 -75 l 38 100 l 140 100 q 165 132 165 100 l 165 369 q 204 493 165 449 q 165 603 165 536 l 165 851 q 158 867 163 858 q 144 876 154 876 z "},"~":{"ha":871,"x_min":43,"x_max":828,"o":"m 828 383 q 733 257 789 311 q 590 182 658 182 q 417 253 529 182 q 278 325 304 325 q 163 222 218 325 l 43 342 q 138 468 82 417 q 276 531 206 531 q 440 460 333 531 q 585 389 546 389 q 703 511 638 389 l 828 383 z "},"Ä":{"ha":926,"x_min":29,"x_max":925,"o":"m 29 0 l 29 218 l 88 218 l 265 753 l 222 753 l 222 972 l 739 972 l 739 753 l 690 753 l 868 218 l 925 218 l 925 0 l 553 0 l 553 218 l 586 218 l 571 264 l 385 264 l 368 218 l 401 218 l 401 0 l 29 0 m 378 24 l 378 196 l 342 196 l 364 286 l 592 286 l 613 196 l 576 196 l 576 24 l 903 24 l 903 196 l 847 196 l 661 776 l 715 776 l 715 949 l 246 949 l 246 776 l 293 776 l 107 196 l 53 196 l 53 24 l 378 24 m 83 54 l 83 165 l 125 165 l 338 807 l 276 807 l 276 918 l 686 918 l 686 807 l 618 807 l 831 165 l 872 165 l 872 54 l 607 54 l 607 165 l 660 165 l 610 317 l 344 317 l 294 165 l 347 165 l 347 54 l 83 54 m 582 397 l 478 714 l 371 397 l 582 397 m 418 425 l 478 618 l 536 425 l 418 425 m 510 450 l 478 543 l 446 450 l 510 450 m 717 1158 q 686 1093 717 1119 q 615 1067 656 1067 q 543 1092 574 1067 q 513 1158 513 1118 q 543 1224 513 1199 q 615 1250 574 1250 q 686 1224 656 1250 q 717 1158 717 1199 m 435 1158 q 404 1093 435 1119 q 333 1067 374 1067 q 261 1092 292 1067 q 231 1158 231 1118 q 261 1224 231 1199 q 333 1250 292 1250 q 404 1224 374 1250 q 435 1158 435 1199 z "},"Å":{"ha":926,"x_min":29,"x_max":925,"o":"m 29 0 l 29 218 l 88 218 l 265 753 l 222 753 l 222 972 l 739 972 l 739 753 l 690 753 l 868 218 l 925 218 l 925 0 l 553 0 l 553 218 l 586 218 l 571 264 l 385 264 l 368 218 l 401 218 l 401 0 l 29 0 m 378 24 l 378 196 l 342 196 l 364 286 l 592 286 l 613 196 l 576 196 l 576 24 l 903 24 l 903 196 l 847 196 l 661 776 l 715 776 l 715 949 l 246 949 l 246 776 l 293 776 l 107 196 l 53 196 l 53 24 l 378 24 m 83 54 l 83 165 l 125 165 l 338 807 l 276 807 l 276 918 l 686 918 l 686 807 l 618 807 l 831 165 l 872 165 l 872 54 l 607 54 l 607 165 l 660 165 l 610 317 l 344 317 l 294 165 l 347 165 l 347 54 l 83 54 m 582 397 l 478 714 l 371 397 l 582 397 m 418 425 l 478 618 l 536 425 l 418 425 m 510 450 l 478 543 l 446 450 l 510 450 m 631 1203 q 587 1105 631 1140 q 478 1069 543 1069 q 374 1104 415 1069 q 328 1203 328 1142 q 372 1304 328 1265 q 478 1339 414 1339 q 585 1304 542 1339 q 631 1203 631 1265 m 532 1204 q 478 1249 532 1249 q 425 1204 425 1249 q 478 1158 425 1158 q 532 1204 532 1158 z "},"Ç":{"ha":850,"x_min":49,"x_max":788,"o":"m 49 156 l 49 817 l 204 972 l 632 972 l 788 815 l 788 600 l 519 600 l 519 722 l 489 753 l 346 753 l 315 721 l 315 250 l 347 218 l 489 218 l 519 249 l 519 365 l 788 365 l 788 156 l 632 0 l 471 0 l 403 -86 q 447 -79 429 -79 q 530 -106 497 -79 q 563 -183 563 -133 q 508 -282 563 -247 q 396 -312 463 -312 q 263 -281 329 -312 l 288 -225 q 379 -247 339 -247 q 456 -190 456 -247 q 435 -149 456 -164 q 389 -135 415 -135 l 372 -135 q 335 -146 364 -136 l 310 -118 l 400 0 l 206 0 l 49 156 m 213 26 l 624 26 l 764 165 l 764 343 l 543 343 l 543 242 l 496 194 l 336 194 l 293 238 l 293 728 l 342 776 l 494 776 l 543 728 l 543 622 l 764 622 l 764 808 l 625 947 l 211 947 l 72 808 l 72 167 l 213 26 m 103 182 l 103 790 l 231 918 l 607 918 l 735 790 l 735 653 l 574 653 l 574 747 l 513 807 l 322 807 l 263 749 l 263 225 l 324 165 l 513 165 l 574 225 l 574 314 l 735 314 l 735 182 l 607 54 l 231 54 l 103 182 z "},"É":{"ha":763,"x_min":29,"x_max":743,"o":"m 29 0 l 29 218 l 88 218 l 88 753 l 29 753 l 29 972 l 743 972 l 743 714 l 525 714 l 525 753 l 354 753 l 354 596 l 393 596 l 393 633 l 613 633 l 613 339 l 393 339 l 393 376 l 354 376 l 354 218 l 525 218 l 525 258 l 743 258 l 743 0 l 29 0 m 719 24 l 719 235 l 547 235 l 547 196 l 331 196 l 331 401 l 417 401 l 417 363 l 589 363 l 589 610 l 417 610 l 417 571 l 331 571 l 331 776 l 547 776 l 547 738 l 719 738 l 719 949 l 53 949 l 53 776 l 110 776 l 110 196 l 53 196 l 53 24 l 719 24 m 83 54 l 83 165 l 140 165 l 140 807 l 83 807 l 83 918 l 690 918 l 690 768 l 578 768 l 578 807 l 301 807 l 301 542 l 447 542 l 447 581 l 558 581 l 558 392 l 447 392 l 447 431 l 301 431 l 301 165 l 578 165 l 578 204 l 690 204 l 690 54 l 83 54 m 581 1256 l 353 1069 l 261 1131 l 443 1344 l 581 1256 z "},"Ñ":{"ha":956,"x_min":10,"x_max":918,"o":"m 10 0 l 10 218 l 68 218 l 68 753 l 10 753 l 10 972 l 325 972 l 593 526 l 593 753 l 535 753 l 535 972 l 918 972 l 918 753 l 860 753 l 860 218 l 918 218 l 918 0 l 597 0 l 335 435 l 335 218 l 393 218 l 393 0 l 10 0 m 369 22 l 369 196 l 311 196 l 311 518 l 608 22 l 894 22 l 894 196 l 836 196 l 836 776 l 894 776 l 894 949 l 558 949 l 558 776 l 617 776 l 617 444 l 314 949 l 33 949 l 33 776 l 90 776 l 90 196 l 33 196 l 33 22 l 369 22 m 64 54 l 64 165 l 121 165 l 121 807 l 64 807 l 64 918 l 288 918 l 647 321 l 647 807 l 588 807 l 588 918 l 865 918 l 865 807 l 806 807 l 806 165 l 865 165 l 865 54 l 633 54 l 282 640 l 282 165 l 340 165 l 340 54 l 64 54 m 761 1199 q 592 1068 693 1068 q 488 1101 554 1068 q 400 1133 421 1133 q 329 1072 360 1133 l 239 1138 q 408 1261 306 1261 q 510 1228 449 1261 q 593 1194 571 1194 q 669 1260 632 1194 l 761 1199 z "},"Ö":{"ha":832,"x_min":58,"x_max":797,"o":"m 58 156 l 58 817 l 214 972 l 642 972 l 797 817 l 797 156 l 642 0 l 214 0 l 58 156 m 222 25 l 635 25 l 774 164 l 774 807 l 632 949 l 222 949 l 83 810 l 83 164 l 222 25 m 113 182 l 113 790 l 240 918 l 617 918 l 744 790 l 744 182 l 617 54 l 240 54 l 113 182 m 332 165 l 524 165 l 583 225 l 583 746 l 522 807 l 332 807 l 272 747 l 272 225 l 332 165 m 301 243 l 301 729 l 350 778 l 506 778 l 554 729 l 554 243 l 506 194 l 350 194 l 301 243 m 357 218 l 499 218 l 529 249 l 529 722 l 499 753 l 356 753 l 325 722 l 325 250 l 357 218 m 663 1156 q 632 1090 663 1117 q 561 1064 601 1064 q 489 1090 519 1064 q 458 1156 458 1115 q 489 1222 458 1196 q 561 1247 519 1247 q 632 1222 601 1247 q 663 1156 663 1196 m 381 1156 q 350 1090 381 1117 q 279 1064 319 1064 q 207 1090 238 1064 q 176 1156 176 1115 q 207 1222 176 1196 q 279 1247 238 1247 q 350 1222 319 1247 q 381 1156 381 1196 z "},"Ü":{"ha":907,"x_min":40,"x_max":896,"o":"m 40 753 l 40 972 l 424 972 l 424 753 l 365 753 l 365 249 l 396 218 l 539 218 l 569 249 l 569 753 l 511 753 l 511 972 l 896 972 l 896 753 l 836 753 l 836 156 l 682 0 l 254 0 l 99 156 l 99 753 l 40 753 m 121 776 l 121 161 l 258 24 l 678 24 l 814 160 l 814 776 l 871 776 l 871 949 l 535 949 l 535 776 l 594 776 l 594 244 l 544 196 l 392 196 l 342 246 l 342 776 l 400 776 l 400 949 l 64 949 l 64 776 l 121 776 m 94 807 l 94 918 l 371 918 l 371 807 l 313 807 l 313 225 l 372 165 l 563 165 l 624 226 l 624 807 l 565 807 l 565 918 l 842 918 l 842 807 l 783 807 l 783 182 l 656 54 l 281 54 l 151 183 l 151 807 l 94 807 m 667 1163 q 636 1097 667 1124 q 565 1071 606 1071 q 493 1097 524 1071 q 463 1163 463 1122 q 493 1228 463 1203 q 565 1254 524 1254 q 636 1228 606 1254 q 667 1163 667 1203 m 385 1163 q 354 1097 385 1124 q 283 1071 324 1071 q 211 1097 242 1071 q 181 1163 181 1122 q 211 1228 181 1203 q 283 1254 242 1254 q 354 1228 324 1254 q 385 1163 385 1203 z "},"á":{"ha":825,"x_min":10,"x_max":800,"o":"m 10 0 l 10 113 l 51 113 l 265 753 l 203 753 l 203 865 l 613 865 l 613 753 l 544 753 l 757 113 l 800 113 l 800 0 l 533 0 l 533 113 l 588 113 l 536 264 l 271 264 l 221 113 l 275 113 l 275 0 l 10 0 m 510 343 l 404 661 l 299 343 l 510 343 m 601 1126 l 374 940 l 282 1001 l 464 1215 l 601 1126 z "},"à":{"ha":833,"x_min":10,"x_max":800,"o":"m 10 0 l 10 113 l 51 113 l 265 753 l 203 753 l 203 865 l 613 865 l 613 753 l 544 753 l 757 113 l 800 113 l 800 0 l 533 0 l 533 113 l 588 113 l 536 264 l 271 264 l 221 113 l 275 113 l 275 0 l 10 0 m 510 343 l 404 661 l 299 343 l 510 343 m 521 997 l 429 938 l 204 1122 l 339 1211 l 521 997 z "},"â":{"ha":829,"x_min":10,"x_max":800,"o":"m 10 0 l 10 113 l 51 113 l 265 753 l 203 753 l 203 865 l 613 865 l 613 753 l 544 753 l 757 113 l 800 113 l 800 0 l 533 0 l 533 113 l 588 113 l 536 264 l 271 264 l 221 113 l 275 113 l 275 0 l 10 0 m 510 343 l 404 661 l 299 343 l 510 343 m 644 1033 l 568 936 l 408 1038 l 247 938 l 172 1035 l 410 1193 l 644 1033 z "},"ä":{"ha":829,"x_min":10,"x_max":800,"o":"m 10 0 l 10 113 l 51 113 l 265 753 l 203 753 l 203 865 l 613 865 l 613 753 l 544 753 l 757 113 l 800 113 l 800 0 l 533 0 l 533 113 l 588 113 l 536 264 l 271 264 l 221 113 l 275 113 l 275 0 l 10 0 m 510 343 l 404 661 l 299 343 l 510 343 m 654 1029 q 624 964 654 990 q 553 938 593 938 q 481 963 511 938 q 450 1029 450 989 q 481 1095 450 1069 q 553 1121 511 1121 q 624 1095 593 1121 q 654 1029 654 1069 m 372 1029 q 342 964 372 990 q 271 938 311 938 q 199 963 229 938 q 168 1029 168 989 q 199 1095 168 1069 q 271 1121 229 1121 q 342 1095 311 1121 q 372 1029 372 1069 z "},"ã":{"ha":829,"x_min":10,"x_max":800,"o":"m 10 0 l 10 113 l 51 113 l 265 753 l 203 753 l 203 865 l 613 865 l 613 753 l 544 753 l 757 113 l 800 113 l 800 0 l 533 0 l 533 113 l 588 113 l 536 264 l 271 264 l 221 113 l 275 113 l 275 0 l 10 0 m 510 343 l 404 661 l 299 343 l 510 343 m 701 1069 q 532 939 633 939 q 428 972 494 939 q 340 1004 361 1004 q 269 943 300 1004 l 179 1008 q 349 1132 246 1132 q 450 1099 389 1132 q 533 1065 511 1065 q 610 1131 572 1065 l 701 1069 z "},"å":{"ha":833,"x_min":10,"x_max":800,"o":"m 10 0 l 10 113 l 51 113 l 265 753 l 203 753 l 203 865 l 613 865 l 613 753 l 544 753 l 757 113 l 800 113 l 800 0 l 533 0 l 533 113 l 588 113 l 536 264 l 271 264 l 221 113 l 275 113 l 275 0 l 10 0 m 510 343 l 404 661 l 299 343 l 510 343 m 574 1071 q 530 973 574 1008 q 421 938 486 938 q 317 972 358 938 q 271 1071 271 1010 q 315 1172 271 1133 q 421 1207 357 1207 q 528 1172 485 1207 q 574 1071 574 1133 m 475 1072 q 421 1117 475 1117 q 368 1072 368 1117 q 421 1026 368 1026 q 475 1072 475 1026 z "},"ç":{"ha":733,"x_min":49,"x_max":681,"o":"m 49 128 l 49 738 l 176 865 l 553 865 l 681 738 l 681 599 l 519 599 l 519 693 l 461 753 l 268 753 l 210 693 l 210 171 l 268 113 l 461 113 l 519 171 l 519 260 l 681 260 l 681 128 l 553 0 l 381 0 l 317 -86 q 364 -79 346 -79 q 444 -108 411 -79 q 476 -183 476 -136 q 425 -282 476 -247 q 313 -312 379 -312 q 178 -281 244 -312 l 203 -225 q 294 -247 254 -247 q 369 -190 369 -247 q 351 -151 369 -167 q 310 -135 333 -135 q 265 -142 293 -135 l 249 -146 l 226 -118 l 314 0 l 176 0 l 49 128 z "},"é":{"ha":646,"x_min":10,"x_max":617,"o":"m 10 0 l 10 113 l 68 113 l 68 753 l 10 753 l 10 865 l 617 865 l 617 714 l 506 714 l 506 753 l 228 753 l 228 488 l 374 488 l 374 526 l 486 526 l 486 339 l 374 339 l 374 376 l 228 376 l 228 113 l 506 113 l 506 151 l 617 151 l 617 0 l 10 0 m 485 1122 l 257 936 l 165 997 l 347 1211 l 485 1122 z "},"è":{"ha":646,"x_min":10,"x_max":617,"o":"m 10 0 l 10 113 l 68 113 l 68 753 l 10 753 l 10 865 l 617 865 l 617 714 l 506 714 l 506 753 l 228 753 l 228 488 l 374 488 l 374 526 l 486 526 l 486 339 l 374 339 l 374 376 l 228 376 l 228 113 l 506 113 l 506 151 l 617 151 l 617 0 l 10 0 m 504 997 l 413 938 l 188 1122 l 322 1211 l 504 997 z "},"ê":{"ha":642,"x_min":10,"x_max":617,"o":"m 10 0 l 10 113 l 68 113 l 68 753 l 10 753 l 10 865 l 617 865 l 617 714 l 506 714 l 506 753 l 228 753 l 228 488 l 374 488 l 374 526 l 486 526 l 486 339 l 374 339 l 374 376 l 228 376 l 228 113 l 506 113 l 506 151 l 617 151 l 617 0 l 10 0 m 551 1033 l 475 936 l 315 1038 l 154 938 l 79 1035 l 317 1193 l 551 1033 z "},"ë":{"ha":654,"x_min":10,"x_max":617,"o":"m 10 0 l 10 113 l 68 113 l 68 753 l 10 753 l 10 865 l 617 865 l 617 714 l 506 714 l 506 753 l 228 753 l 228 488 l 374 488 l 374 526 l 486 526 l 486 339 l 374 339 l 374 376 l 228 376 l 228 113 l 506 113 l 506 151 l 617 151 l 617 0 l 10 0 m 565 1025 q 535 960 565 986 q 464 933 504 933 q 392 959 422 933 q 361 1025 361 985 q 392 1091 361 1065 q 464 1117 422 1117 q 535 1091 504 1117 q 565 1025 565 1065 m 283 1025 q 253 960 283 986 q 182 933 222 933 q 110 959 140 933 q 79 1025 79 985 q 110 1091 79 1065 q 182 1117 140 1117 q 253 1091 222 1117 q 283 1025 283 1065 z "},"í":{"ha":332,"x_min":10,"x_max":329,"o":"m 10 0 l 10 113 l 68 113 l 68 753 l 10 753 l 10 865 l 286 865 l 286 753 l 228 753 l 228 113 l 286 113 l 286 0 l 10 0 m 329 1124 l 101 938 l 10 999 l 192 1213 l 329 1124 z "},"ì":{"ha":321,"x_min":-36,"x_max":286,"o":"m 10 0 l 10 113 l 68 113 l 68 753 l 10 753 l 10 865 l 286 865 l 286 753 l 228 753 l 228 113 l 286 113 l 286 0 l 10 0 m 281 993 l 189 933 l -36 1118 l 99 1207 l 281 993 z "},"î":{"ha":319,"x_min":-90,"x_max":382,"o":"m 10 0 l 10 113 l 68 113 l 68 753 l 10 753 l 10 865 l 286 865 l 286 753 l 228 753 l 228 113 l 286 113 l 286 0 l 10 0 m 382 1028 l 306 931 l 146 1032 l -15 932 l -90 1029 l 147 1188 l 382 1028 z "},"ï":{"ha":318,"x_min":-101,"x_max":385,"o":"m 10 0 l 10 113 l 68 113 l 68 753 l 10 753 l 10 865 l 286 865 l 286 753 l 228 753 l 228 113 l 286 113 l 286 0 l 10 0 m 385 1028 q 354 963 385 989 q 283 936 324 936 q 211 962 242 936 q 181 1028 181 988 q 211 1094 181 1068 q 283 1119 242 1119 q 354 1094 324 1119 q 385 1028 385 1068 m 103 1028 q 72 963 103 989 q 1 936 42 936 q -71 962 -40 936 q -101 1028 -101 988 q -71 1094 -101 1068 q 1 1119 -40 1119 q 72 1094 42 1119 q 103 1028 103 1068 z "},"ñ":{"ha":847,"x_min":10,"x_max":811,"o":"m 10 0 l 10 113 l 68 113 l 68 753 l 10 753 l 10 865 l 233 865 l 593 267 l 593 753 l 535 753 l 535 865 l 811 865 l 811 753 l 753 753 l 753 113 l 811 113 l 811 0 l 581 0 l 228 586 l 228 113 l 286 113 l 286 0 l 10 0 m 678 1064 q 508 933 610 933 q 404 966 471 933 q 317 999 338 999 q 246 938 276 999 l 156 1003 q 325 1126 222 1126 q 426 1093 365 1126 q 510 1060 488 1060 q 586 1125 549 1060 l 678 1064 z "},"ó":{"ha":719,"x_min":49,"x_max":681,"o":"m 49 128 l 49 738 l 176 865 l 553 865 l 681 738 l 681 128 l 553 0 l 176 0 l 49 128 m 268 113 l 461 113 l 519 171 l 519 693 l 461 753 l 268 753 l 210 693 l 210 171 l 268 113 m 578 1122 l 350 936 l 258 997 l 440 1211 l 578 1122 z "},"ò":{"ha":724,"x_min":49,"x_max":681,"o":"m 49 128 l 49 738 l 176 865 l 553 865 l 681 738 l 681 128 l 553 0 l 176 0 l 49 128 m 268 113 l 461 113 l 519 171 l 519 693 l 461 753 l 268 753 l 210 693 l 210 171 l 268 113 m 553 997 l 461 938 l 236 1122 l 371 1211 l 553 997 z "},"ô":{"ha":724,"x_min":49,"x_max":681,"o":"m 49 128 l 49 738 l 176 865 l 553 865 l 681 738 l 681 128 l 553 0 l 176 0 l 49 128 m 268 113 l 461 113 l 519 171 l 519 693 l 461 753 l 268 753 l 210 693 l 210 171 l 268 113 m 614 1029 l 538 932 l 378 1033 l 217 933 l 142 1031 l 379 1189 l 614 1029 z "},"ö":{"ha":732,"x_min":49,"x_max":681,"o":"m 49 128 l 49 738 l 176 865 l 553 865 l 681 738 l 681 128 l 553 0 l 176 0 l 49 128 m 268 113 l 461 113 l 519 171 l 519 693 l 461 753 l 268 753 l 210 693 l 210 171 l 268 113 m 611 1029 q 581 964 611 990 q 510 938 550 938 q 438 963 468 938 q 407 1029 407 989 q 438 1095 407 1069 q 510 1121 468 1121 q 581 1095 550 1121 q 611 1029 611 1069 m 329 1029 q 299 964 329 990 q 228 938 268 938 q 156 963 186 938 q 125 1029 125 989 q 156 1095 125 1069 q 228 1121 186 1121 q 299 1095 268 1121 q 329 1029 329 1069 z "},"õ":{"ha":724,"x_min":49,"x_max":681,"o":"m 49 128 l 49 738 l 176 865 l 553 865 l 681 738 l 681 128 l 553 0 l 176 0 l 49 128 m 268 113 l 461 113 l 519 171 l 519 693 l 461 753 l 268 753 l 210 693 l 210 171 l 268 113 m 646 1069 q 476 939 578 939 q 372 972 439 939 q 285 1004 306 1004 q 214 943 244 1004 l 124 1008 q 293 1132 190 1132 q 394 1099 333 1132 q 478 1065 456 1065 q 554 1131 517 1065 l 646 1069 z "},"ú":{"ha":789,"x_min":10,"x_max":757,"o":"m 10 753 l 10 865 l 286 865 l 286 753 l 228 753 l 228 171 l 289 113 l 479 113 l 539 171 l 539 753 l 481 753 l 481 865 l 757 865 l 757 753 l 700 753 l 700 128 l 571 0 l 196 0 l 68 128 l 68 753 l 10 753 m 560 1119 l 332 933 l 240 994 l 422 1208 l 560 1119 z "},"ù":{"ha":785,"x_min":10,"x_max":757,"o":"m 10 753 l 10 865 l 286 865 l 286 753 l 228 753 l 228 171 l 289 113 l 479 113 l 539 171 l 539 753 l 481 753 l 481 865 l 757 865 l 757 753 l 700 753 l 700 128 l 571 0 l 196 0 l 68 128 l 68 753 l 10 753 m 558 999 l 467 939 l 242 1124 l 376 1213 l 558 999 z "},"û":{"ha":789,"x_min":10,"x_max":757,"o":"m 10 753 l 10 865 l 286 865 l 286 753 l 228 753 l 228 171 l 289 113 l 479 113 l 539 171 l 539 753 l 481 753 l 481 865 l 757 865 l 757 753 l 700 753 l 700 128 l 571 0 l 196 0 l 68 128 l 68 753 l 10 753 m 646 1035 l 569 938 l 410 1039 l 249 939 l 174 1036 l 411 1194 l 646 1035 z "},"ü":{"ha":785,"x_min":10,"x_max":757,"o":"m 10 753 l 10 865 l 286 865 l 286 753 l 228 753 l 228 171 l 289 113 l 479 113 l 539 171 l 539 753 l 481 753 l 481 865 l 757 865 l 757 753 l 700 753 l 700 128 l 571 0 l 196 0 l 68 128 l 68 753 l 10 753 m 635 1028 q 604 963 635 989 q 533 936 574 936 q 461 962 492 936 q 431 1028 431 988 q 461 1094 431 1068 q 533 1119 492 1119 q 604 1094 574 1119 q 635 1028 635 1068 m 353 1028 q 322 963 353 989 q 251 936 292 936 q 179 962 210 936 q 149 1028 149 988 q 179 1094 149 1068 q 251 1119 210 1119 q 322 1094 292 1119 q 353 1028 353 1068 z "},"†":{"ha":803,"x_min":25,"x_max":776,"o":"m 515 549 l 515 -269 l 286 -269 l 286 549 l 25 549 l 25 753 l 286 753 l 286 1046 l 515 1046 l 515 753 l 776 753 l 776 549 l 515 549 z "},"°":{"ha":556,"x_min":74,"x_max":482,"o":"m 482 774 q 423 628 482 688 q 278 569 364 569 q 133 628 192 569 q 74 772 74 686 q 132 918 74 860 q 278 976 190 976 q 424 919 365 976 q 482 774 482 861 m 413 772 q 373 872 413 829 q 276 915 333 915 l 268 915 q 179 871 217 915 q 142 774 142 826 q 181 675 142 719 q 274 631 219 631 q 372 672 332 631 q 413 772 413 714 z "},"¢":{"ha":874,"x_min":68,"x_max":806,"o":"m 68 156 l 68 817 l 222 972 l 331 972 l 331 1068 l 553 1068 l 553 972 l 651 972 l 806 817 l 806 600 l 539 600 l 539 722 l 508 753 l 367 753 l 335 722 l 335 249 l 367 218 l 508 218 l 539 249 l 539 365 l 806 365 l 806 156 l 650 0 l 547 0 l 547 -100 l 325 -100 l 325 0 l 224 0 l 68 156 m 229 21 l 349 21 l 349 -76 l 524 -76 l 524 21 l 643 21 l 783 163 l 783 343 l 563 343 l 563 246 l 511 196 l 361 196 l 311 246 l 311 726 l 360 776 l 513 776 l 563 726 l 563 622 l 783 622 l 783 811 l 646 949 l 528 949 l 528 1043 l 354 1043 l 354 947 l 228 947 l 90 810 l 90 161 l 229 21 m 121 182 l 119 792 l 249 919 l 383 919 l 383 1010 l 499 1010 l 499 918 l 624 918 l 753 789 l 753 653 l 593 653 l 593 747 l 533 807 l 342 807 l 281 746 l 281 225 l 340 165 l 533 165 l 593 225 l 593 314 l 753 314 l 753 182 l 624 53 l 494 53 l 494 -43 l 381 -43 l 381 53 l 251 53 l 121 182 z "},"£":{"ha":836,"x_min":68,"x_max":788,"o":"m 68 340 l 68 538 l 125 538 l 125 753 l 68 753 l 68 972 l 451 972 l 451 753 l 393 753 l 393 538 l 785 538 l 785 342 l 393 342 l 393 218 l 568 218 l 568 276 l 788 276 l 788 0 l 68 0 l 68 218 l 125 218 l 125 340 l 68 340 m 764 24 l 764 253 l 592 253 l 592 196 l 369 196 l 369 365 l 761 365 l 761 514 l 369 514 l 369 776 l 428 776 l 428 949 l 90 949 l 90 776 l 150 776 l 150 514 l 92 514 l 92 364 l 150 364 l 150 196 l 90 196 l 90 24 l 764 24 m 121 54 l 121 165 l 179 165 l 179 397 l 125 397 l 125 483 l 179 483 l 179 807 l 121 807 l 121 918 l 399 918 l 399 807 l 340 807 l 340 482 l 732 482 l 732 397 l 342 397 l 342 165 l 621 165 l 621 224 l 733 224 l 733 54 l 121 54 z "},"§":{"ha":828,"x_min":42,"x_max":786,"o":"m 786 426 q 668 217 786 300 q 728 65 728 150 q 632 -132 728 -58 q 417 -199 544 -199 q 186 -119 289 -199 q 96 15 93 -49 l 256 68 q 320 3 269 32 q 411 -26 371 -26 q 492 0 457 -26 q 526 69 526 26 q 490 135 526 108 q 421 172 471 150 l 254 246 q 108 329 149 294 q 42 476 42 386 q 171 685 42 601 q 122 815 122 744 q 217 993 122 926 q 417 1053 301 1053 q 600 1014 519 1053 q 717 876 696 965 l 557 824 q 418 897 533 897 q 353 874 381 897 q 325 813 325 850 q 360 751 325 776 q 425 717 369 743 l 588 642 q 724 561 682 597 q 786 426 786 507 m 594 397 q 526 469 594 436 l 278 590 q 231 499 231 553 q 308 418 231 454 l 549 307 q 594 397 594 350 z "},"•":{"ha":467,"x_min":39,"x_max":428,"o":"m 39 486 q 96 624 39 567 q 233 681 153 681 q 371 624 314 681 q 428 486 428 567 q 371 349 428 406 q 233 292 314 292 q 96 349 153 292 q 39 486 39 406 z "},"¶":{"ha":746,"x_min":24,"x_max":690,"o":"m 690 -239 l 586 -239 l 586 913 l 425 913 l 425 -239 l 321 -239 l 321 478 q 111 544 192 478 q 24 742 24 617 q 115 936 24 867 q 326 997 197 997 l 690 997 l 690 -239 z "},"ß":{"ha":874,"x_min":83,"x_max":846,"o":"m 846 356 q 724 69 846 175 q 422 -21 604 -31 l 422 165 q 551 214 497 165 q 606 338 606 263 q 552 457 606 413 q 422 499 499 501 l 422 679 q 513 712 476 678 q 549 800 549 746 q 514 877 549 849 q 429 906 479 906 q 321 751 321 906 l 321 0 l 83 0 l 83 814 q 175 1036 83 953 q 404 1115 263 1115 q 649 1051 550 1115 q 764 839 764 976 q 661 640 764 708 q 796 524 746 600 q 846 356 846 447 z "},"®":{"ha":1067,"x_min":15,"x_max":1053,"o":"m 999 522 q 864 853 999 718 q 533 988 729 988 q 203 853 338 988 q 68 522 68 718 q 203 192 68 326 q 533 57 338 57 q 864 192 729 57 q 999 522 999 326 m 946 522 q 826 230 946 350 q 533 110 706 110 q 241 229 361 110 q 121 521 121 349 q 240 813 121 693 q 532 933 360 933 q 825 814 704 933 q 946 522 946 694 m 533 4 q 165 153 314 4 q 15 522 15 303 q 165 891 15 740 q 533 1042 315 1042 q 902 891 751 1042 q 1053 522 1053 740 q 902 154 1053 304 q 533 4 751 4 m 533 24 q 888 168 743 24 q 1033 522 1033 313 q 888 877 1033 732 q 533 1022 743 1022 q 179 877 324 1022 q 35 522 35 732 q 178 167 35 311 q 533 24 322 24 m 175 521 q 279 267 175 371 q 533 163 383 163 q 788 267 683 163 q 893 522 893 372 q 788 776 893 672 q 532 881 682 881 q 278 776 382 881 q 175 521 175 671 m 158 521 q 267 788 158 678 q 532 897 375 897 q 799 788 689 897 q 910 522 910 679 q 800 256 910 365 q 533 146 690 146 q 267 255 376 146 q 158 521 158 364 m 360 296 l 360 353 l 389 353 l 389 672 l 360 672 l 360 729 l 621 729 l 685 665 l 685 565 l 640 521 l 685 478 l 685 353 l 714 353 l 714 296 l 604 296 l 604 463 l 574 493 l 468 493 l 468 353 l 497 353 l 497 296 l 360 296 m 574 549 l 604 579 l 604 643 l 574 672 l 468 672 l 468 549 l 574 549 z "},"©":{"ha":1067,"x_min":15,"x_max":1053,"o":"m 999 522 q 864 853 999 718 q 533 988 729 988 q 203 853 338 988 q 68 522 68 718 q 203 192 68 326 q 533 57 338 57 q 864 192 729 57 q 999 522 999 326 m 946 522 q 826 230 946 350 q 533 110 706 110 q 241 229 361 110 q 121 521 121 349 q 240 813 121 693 q 532 933 360 933 q 825 814 704 933 q 946 522 946 694 m 533 4 q 165 153 314 4 q 15 522 15 303 q 165 891 15 740 q 533 1042 315 1042 q 902 891 751 1042 q 1053 522 1053 740 q 902 154 1053 304 q 533 4 751 4 m 533 24 q 888 168 743 24 q 1033 522 1033 313 q 888 877 1033 732 q 533 1022 743 1022 q 179 877 324 1022 q 35 522 35 732 q 178 167 35 311 q 533 24 322 24 m 175 521 q 279 267 175 371 q 533 163 383 163 q 788 267 683 163 q 893 522 893 372 q 788 776 893 672 q 532 881 682 881 q 278 776 382 881 q 175 521 175 671 m 158 521 q 267 788 158 678 q 532 897 375 897 q 799 788 689 897 q 910 522 910 679 q 800 256 910 365 q 533 146 690 146 q 267 255 376 146 q 158 521 158 364 m 374 367 l 374 672 l 438 736 l 626 736 l 690 672 l 690 603 l 610 603 l 610 650 l 581 679 l 483 679 l 454 650 l 454 389 l 483 360 l 581 360 l 610 389 l 610 433 l 690 433 l 690 367 l 626 303 l 438 303 l 374 367 z "},"™":{"ha":922,"x_min":24,"x_max":890,"o":"m 24 894 l 24 979 l 381 979 l 381 894 l 325 894 l 325 924 l 243 924 l 243 603 l 272 603 l 272 547 l 133 547 l 133 603 l 163 603 l 163 924 l 79 924 l 79 894 l 24 894 m 407 547 l 407 603 l 436 603 l 436 924 l 407 924 l 407 979 l 515 979 l 649 757 l 782 979 l 890 979 l 890 924 l 861 924 l 861 603 l 890 603 l 890 547 l 753 547 l 753 603 l 781 603 l 781 847 l 649 626 l 515 847 l 515 603 l 544 603 l 544 547 l 407 547 z "},"´":{"ha":538,"x_min":115,"x_max":435,"o":"m 435 903 l 207 717 l 115 778 l 297 992 l 435 903 z "},"¨":{"ha":711,"x_min":110,"x_max":596,"o":"m 596 860 q 565 794 596 821 q 494 768 535 768 q 422 794 453 768 q 392 860 392 819 q 422 926 392 900 q 494 951 453 951 q 565 926 535 951 q 596 860 596 900 m 314 860 q 283 794 314 821 q 213 768 253 768 q 140 794 171 768 q 110 860 110 819 q 140 926 110 900 q 213 951 171 951 q 283 926 253 951 q 314 860 314 900 z "},"Æ":{"ha":999,"x_min":10,"x_max":954,"o":"m 406 343 l 404 661 l 299 343 l 406 343 m 347 0 l 347 113 l 406 113 l 406 263 l 271 264 l 221 113 l 275 113 l 275 0 l 10 0 l 10 113 l 51 113 l 265 753 l 203 753 l 203 865 l 954 865 l 954 714 l 843 714 l 843 753 l 565 753 l 565 488 l 711 488 l 711 526 l 824 526 l 824 339 l 711 339 l 711 376 l 565 376 l 565 113 l 843 113 l 843 151 l 954 151 l 954 0 l 347 0 z "},"Ø":{"ha":729,"x_min":-15,"x_max":736,"o":"m 519 499 l 326 113 l 461 113 l 519 171 l 519 499 m 210 414 l 378 753 l 268 753 l 210 694 l 210 414 m -15 -47 l 64 111 l 49 128 l 49 738 l 176 865 l 433 865 l 469 939 l 736 939 l 650 768 l 681 738 l 681 128 l 551 0 l 274 0 l 251 -47 l -15 -47 m 519 619 l 267 113 l 306 113 l 519 543 l 519 619 m 492 865 l 501 885 l 650 885 l 611 807 l 635 783 l 703 915 l 481 915 l 454 865 l 492 865 m 210 293 l 436 753 l 400 753 l 210 369 l 210 293 m 69 7 l 101 74 l 76 100 l 14 -24 l 236 -24 l 247 0 l 176 0 l 169 7 l 69 7 z "},"±":{"ha":869,"x_min":33,"x_max":833,"o":"m 535 479 l 535 256 l 333 256 l 333 479 l 33 479 l 33 679 l 333 679 l 333 901 l 535 901 l 535 679 l 833 679 l 833 479 l 535 479 m 33 4 l 33 204 l 833 204 l 833 4 l 33 4 z "},"¥":{"ha":899,"x_min":-1,"x_max":900,"o":"m 900 972 q 708 632 719 649 l 833 632 l 833 506 l 640 506 l 585 407 l 585 399 l 833 399 l 833 271 l 585 271 l 585 0 l 342 0 l 342 271 l 76 271 l 76 399 l 342 399 l 333 422 l 282 506 l 76 506 l 76 632 l 206 632 l -1 972 l 271 972 l 460 615 l 639 972 l 900 972 z "},"µ":{"ha":785,"x_min":64,"x_max":733,"o":"m 733 260 q 633 46 733 121 q 400 -22 543 -22 q 303 1 346 -22 l 303 -314 l 64 -314 l 64 635 l 303 635 l 303 289 q 401 171 303 171 q 493 289 493 171 l 493 635 l 733 635 l 733 260 z "},"ª":{"ha":590,"x_min":32,"x_max":564,"o":"m 564 329 l 32 329 l 32 456 l 564 456 l 564 329 m 114 535 l 114 590 l 135 590 l 242 911 l 211 911 l 211 967 l 415 967 l 415 911 l 382 911 l 488 590 l 510 590 l 510 535 l 376 535 l 376 590 l 403 590 l 378 667 l 244 667 l 219 590 l 247 590 l 247 535 l 114 535 m 364 706 l 311 865 l 258 706 l 364 706 z "},"º":{"ha":590,"x_min":32,"x_max":564,"o":"m 564 329 l 32 329 l 32 456 l 564 456 l 564 329 m 132 589 l 132 894 l 196 958 l 385 958 l 449 894 l 449 589 l 385 525 l 196 525 l 132 589 m 242 582 l 339 582 l 368 611 l 368 872 l 339 901 l 242 901 l 213 872 l 213 611 l 242 582 z "},"æ":{"ha":999,"x_min":10,"x_max":954,"o":"m 406 343 l 404 661 l 299 343 l 406 343 m 347 0 l 347 113 l 406 113 l 406 263 l 271 264 l 221 113 l 275 113 l 275 0 l 10 0 l 10 113 l 51 113 l 265 753 l 203 753 l 203 865 l 954 865 l 954 714 l 843 714 l 843 753 l 565 753 l 565 488 l 711 488 l 711 526 l 824 526 l 824 339 l 711 339 l 711 376 l 565 376 l 565 113 l 843 113 l 843 151 l 954 151 l 954 0 l 347 0 z "},"ø":{"ha":729,"x_min":-15,"x_max":736,"o":"m 519 499 l 326 113 l 463 113 l 519 171 l 519 499 m 210 417 l 378 753 l 268 753 l 210 694 l 210 417 m -15 -47 l 64 113 l 49 128 l 49 738 l 176 865 l 433 865 l 469 939 l 736 939 l 650 768 l 681 738 l 681 128 l 553 0 l 274 0 l 251 -47 l -15 -47 m 519 619 l 267 113 l 306 113 l 519 543 l 519 619 m 492 865 l 501 885 l 650 885 l 611 807 l 635 782 l 701 917 l 482 917 l 456 865 l 492 865 m 210 293 l 436 753 l 400 753 l 210 369 l 210 293 m 69 7 l 101 75 l 81 96 l 21 -24 l 236 -24 l 247 0 l 176 0 l 169 7 l 69 7 z "},"¿":{"ha":690,"x_min":10,"x_max":681,"o":"m 681 349 l 681 154 l 525 0 l 165 0 l 10 154 l 10 415 l 199 604 l 199 706 l 492 706 l 492 539 l 276 325 l 276 268 l 307 238 l 383 238 l 414 269 l 414 349 l 681 349 m 492 972 l 492 754 l 200 754 l 200 972 l 492 972 m 225 949 l 225 778 l 468 778 l 468 949 l 225 949 m 438 325 l 438 264 l 389 214 l 301 214 l 253 263 l 253 332 l 468 546 l 468 682 l 222 682 l 222 599 l 32 410 l 32 163 l 171 24 l 519 24 l 657 161 l 657 325 l 438 325 m 439 918 l 439 807 l 254 807 l 254 918 l 439 918 m 626 294 l 626 182 l 499 54 l 190 54 l 64 182 l 64 390 l 251 579 l 251 654 l 439 654 l 439 563 l 225 349 l 225 246 l 285 185 l 407 185 l 468 246 l 468 294 l 626 294 z "},"¡":{"ha":364,"x_min":49,"x_max":317,"o":"m 317 681 l 317 0 l 49 0 l 49 681 l 317 681 m 317 972 l 317 753 l 49 753 l 49 972 l 317 972 m 72 657 l 72 24 l 293 24 l 293 657 l 72 657 m 72 949 l 72 776 l 293 776 l 293 949 l 72 949 m 263 918 l 263 807 l 103 807 l 103 918 l 263 918 m 263 626 l 263 54 l 103 54 l 103 626 l 263 626 z "},"¬":{"ha":811,"x_min":54,"x_max":757,"o":"m 757 150 l 653 150 l 653 440 l 54 440 l 54 542 l 757 542 l 757 150 z "},"ƒ":{"ha":772,"x_min":-17,"x_max":696,"o":"m 696 1001 l 675 893 q 592 917 621 917 q 523 880 550 917 q 483 779 496 843 l 456 642 l 614 642 l 614 543 l 438 543 l 349 56 q 251 -194 319 -101 q 68 -287 183 -287 q -17 -269 15 -287 l 6 -157 q 79 -176 42 -176 q 179 -100 143 -176 q 214 32 197 -60 l 308 543 l 157 543 l 157 642 l 328 642 l 332 658 q 368 817 346 722 q 426 940 389 893 q 596 1024 492 1024 q 696 1001 643 1024 z "},"«":{"ha":772,"x_min":135,"x_max":639,"o":"m 639 619 l 638 497 l 492 385 l 638 272 l 638 149 l 418 322 l 418 449 l 639 619 m 354 272 l 353 149 l 135 322 l 135 449 l 354 621 l 353 497 l 208 385 l 354 272 z "},"»":{"ha":772,"x_min":133,"x_max":638,"o":"m 638 321 l 418 149 l 418 272 l 564 385 l 418 497 l 418 621 l 638 449 l 638 321 m 353 321 l 133 149 l 133 272 l 279 385 l 133 497 l 133 621 l 353 449 l 353 321 z "},"…":{"ha":1500,"x_min":100,"x_max":1390,"o":"m 1390 129 q 1349 26 1390 68 q 1246 -15 1307 -15 q 1142 26 1183 -15 q 1100 129 1100 67 q 1142 235 1100 192 q 1246 278 1183 278 q 1349 235 1308 278 q 1390 129 1390 192 m 890 129 q 849 26 890 68 q 746 -15 807 -15 q 642 26 685 -15 q 600 129 600 67 q 642 235 600 192 q 746 278 683 278 q 849 235 808 278 q 890 129 890 192 m 390 129 q 349 26 390 68 q 246 -15 307 -15 q 142 26 185 -15 q 100 129 100 67 q 142 235 100 192 q 246 278 183 278 q 349 235 308 278 q 390 129 390 192 z "}," ":{"ha":392,"x_min":0,"x_max":0,"o":""},"À":{"ha":364,"x_min":49,"x_max":317,"o":"m 49 292 l 49 972 l 317 972 l 317 292 l 49 292 m 49 0 l 49 219 l 317 219 l 317 0 l 49 0 m 293 315 l 293 949 l 72 949 l 72 315 l 293 315 m 293 24 l 293 196 l 72 196 l 72 24 l 293 24 m 103 54 l 103 165 l 263 165 l 263 54 l 103 54 m 103 346 l 103 918 l 263 918 l 263 346 l 103 346 z "},"Ã":{"ha":926,"x_min":29,"x_max":925,"o":"m 29 0 l 29 218 l 88 218 l 265 753 l 222 753 l 222 972 l 739 972 l 739 753 l 690 753 l 868 218 l 925 218 l 925 0 l 553 0 l 553 218 l 586 218 l 571 264 l 385 264 l 368 218 l 401 218 l 401 0 l 29 0 m 378 24 l 378 196 l 342 196 l 364 286 l 592 286 l 613 196 l 576 196 l 576 24 l 903 24 l 903 196 l 847 196 l 661 776 l 715 776 l 715 949 l 246 949 l 246 776 l 293 776 l 107 196 l 53 196 l 53 24 l 378 24 m 83 54 l 83 165 l 125 165 l 338 807 l 276 807 l 276 918 l 686 918 l 686 807 l 618 807 l 831 165 l 872 165 l 872 54 l 607 54 l 607 165 l 660 165 l 610 317 l 344 317 l 294 165 l 347 165 l 347 54 l 83 54 m 582 397 l 478 714 l 371 397 l 582 397 m 418 425 l 478 618 l 536 425 l 418 425 m 510 450 l 478 543 l 446 450 l 510 450 m 772 1203 q 603 1072 704 1072 q 499 1105 565 1072 q 411 1138 432 1138 q 340 1076 371 1138 l 250 1142 q 419 1265 317 1265 q 521 1232 460 1265 q 604 1199 582 1199 q 681 1264 643 1199 l 772 1203 z "},"Õ":{"ha":832,"x_min":58,"x_max":797,"o":"m 58 156 l 58 817 l 214 972 l 642 972 l 797 817 l 797 156 l 642 0 l 214 0 l 58 156 m 222 25 l 635 25 l 774 164 l 774 807 l 632 949 l 222 949 l 83 810 l 83 164 l 222 25 m 113 182 l 113 790 l 240 918 l 617 918 l 744 790 l 744 182 l 617 54 l 240 54 l 113 182 m 332 165 l 524 165 l 583 225 l 583 746 l 522 807 l 332 807 l 272 747 l 272 225 l 332 165 m 301 243 l 301 729 l 350 778 l 506 778 l 554 729 l 554 243 l 506 194 l 350 194 l 301 243 m 357 218 l 499 218 l 529 249 l 529 722 l 499 753 l 356 753 l 325 722 l 325 250 l 357 218 m 700 1199 q 531 1068 632 1068 q 426 1101 493 1068 q 339 1133 360 1133 q 268 1072 299 1133 l 178 1138 q 347 1261 244 1261 q 449 1228 388 1261 q 532 1194 510 1194 q 608 1260 571 1194 l 700 1199 z "},"Œ":{"ha":1099,"x_min":49,"x_max":1067,"o":"m 1067 865 l 1067 714 l 956 714 l 956 753 l 678 753 l 678 488 l 824 488 l 824 526 l 936 526 l 936 339 l 824 339 l 824 376 l 678 376 l 678 113 l 956 113 l 956 151 l 1067 151 l 1067 0 l 176 0 l 49 128 l 49 738 l 176 865 l 1067 865 m 461 113 l 518 169 l 518 694 l 461 753 l 268 753 l 210 693 l 210 171 l 268 113 l 461 113 z "},"œ":{"ha":1099,"x_min":49,"x_max":1067,"o":"m 1067 865 l 1067 714 l 956 714 l 956 753 l 678 753 l 678 488 l 824 488 l 824 526 l 936 526 l 936 339 l 824 339 l 824 376 l 678 376 l 678 113 l 956 113 l 956 151 l 1067 151 l 1067 0 l 176 0 l 49 128 l 49 738 l 176 865 l 1067 865 m 461 113 l 518 169 l 518 694 l 461 753 l 268 753 l 210 693 l 210 171 l 268 113 l 461 113 z "},"–":{"ha":967,"x_min":104,"x_max":863,"o":"m 104 383 l 104 589 l 863 589 l 863 383 l 104 383 z "},"—":{"ha":579,"x_min":24,"x_max":556,"o":"m 24 97 l 24 342 l 556 342 l 556 97 l 24 97 z "},"“":{"ha":267,"x_min":10,"x_max":536,"o":"m 288 567 l 288 815 l 463 989 l 463 815 l 536 815 l 536 567 l 288 567 m 511 592 l 511 792 l 439 792 l 439 938 l 311 810 l 311 592 l 511 592 m 342 621 l 342 790 l 410 858 l 410 761 l 482 761 l 482 621 l 342 621 m 10 567 l 10 815 l 185 990 l 185 815 l 258 815 l 258 567 l 10 567 m 233 592 l 233 792 l 161 792 l 161 936 l 33 810 l 33 592 l 233 592 m 64 621 l 64 790 l 132 858 l 132 761 l 204 761 l 204 621 l 64 621 z "},"”":{"ha":551,"x_min":10,"x_max":536,"o":"m 258 972 l 258 724 l 83 547 l 83 724 l 10 724 l 10 972 l 258 972 m 35 947 l 35 747 l 107 747 l 107 601 l 235 729 l 235 947 l 35 947 m 204 918 l 204 749 l 136 679 l 136 778 l 64 778 l 64 918 l 204 918 m 536 972 l 536 724 l 361 549 l 361 724 l 288 724 l 288 972 l 536 972 m 313 947 l 313 747 l 385 747 l 385 600 l 513 729 l 513 947 l 313 947 m 482 918 l 482 749 l 414 681 l 414 778 l 342 778 l 342 918 l 482 918 z "},"‘":{"ha":267,"x_min":10,"x_max":258,"o":"m 10 567 l 10 815 l 185 990 l 185 815 l 258 815 l 258 567 l 10 567 m 233 592 l 233 792 l 161 792 l 161 936 l 33 810 l 33 592 l 233 592 m 64 621 l 64 790 l 132 858 l 132 761 l 204 761 l 204 621 l 64 621 z "},"’":{"ha":267,"x_min":10,"x_max":258,"o":"m 258 972 l 258 724 l 83 547 l 83 724 l 10 724 l 10 972 l 258 972 m 35 947 l 35 747 l 107 747 l 107 601 l 235 729 l 235 947 l 35 947 m 204 918 l 204 749 l 136 679 l 136 778 l 64 778 l 64 918 l 204 918 z "},"÷":{"ha":682,"x_min":18,"x_max":665,"o":"m 665 596 l 665 378 l 18 378 l 18 596 l 665 596 m 40 572 l 40 401 l 642 401 l 642 572 l 40 572 m 72 543 l 72 431 l 613 431 l 613 543 l 72 543 m 218 79 l 218 328 l 467 328 l 467 79 l 218 79 m 442 103 l 442 303 l 242 303 l 242 103 l 442 103 m 272 133 l 272 274 l 413 274 l 413 133 l 272 133 m 218 644 l 218 893 l 467 893 l 467 644 l 218 644 m 442 668 l 442 868 l 242 868 l 242 668 l 442 668 m 272 699 l 272 839 l 413 839 l 413 699 l 272 699 z "},"ÿ":{"ha":885,"x_min":10,"x_max":871,"o":"m 10 753 l 10 865 l 364 865 l 364 753 l 278 753 l 447 536 l 614 753 l 529 753 l 529 865 l 871 865 l 871 753 l 824 753 l 526 408 l 526 113 l 585 113 l 585 -10 l 310 -10 l 310 113 l 367 113 l 367 408 l 71 753 l 10 753 m 700 1029 q 669 964 700 990 q 599 938 639 938 q 526 963 557 938 q 496 1029 496 989 q 526 1095 496 1069 q 599 1121 557 1121 q 669 1095 639 1121 q 700 1029 700 1069 m 418 1029 q 388 964 418 990 q 317 938 357 938 q 244 963 275 938 q 214 1029 214 989 q 244 1095 214 1069 q 317 1121 275 1121 q 388 1095 357 1121 q 418 1029 418 1069 z "},"Ÿ":{"ha":1106,"x_min":10,"x_max":1075,"o":"m 10 753 l 10 972 l 471 972 l 471 753 l 463 753 l 550 667 l 638 753 l 626 753 l 626 972 l 1075 972 l 1075 753 l 996 753 l 682 439 l 682 218 l 740 218 l 740 0 l 358 0 l 358 218 l 415 218 l 415 439 l 101 753 l 10 753 m 111 776 l 439 449 l 439 196 l 381 196 l 381 22 l 718 22 l 718 196 l 658 196 l 658 449 l 988 776 l 1051 776 l 1051 949 l 650 949 l 650 776 l 693 776 l 550 633 l 407 776 l 447 776 l 447 949 l 33 949 l 33 776 l 111 776 m 64 807 l 64 918 l 417 918 l 417 807 l 332 807 l 549 590 l 765 807 l 681 807 l 681 918 l 1022 918 l 1022 807 l 978 807 l 629 461 l 629 165 l 688 165 l 688 43 l 411 43 l 411 165 l 469 165 l 469 461 l 122 807 l 64 807 m 819 1158 q 789 1093 819 1119 q 718 1067 758 1067 q 646 1092 676 1067 q 615 1158 615 1118 q 646 1224 615 1199 q 718 1250 676 1250 q 789 1224 758 1250 q 819 1158 819 1199 m 538 1158 q 507 1093 538 1119 q 436 1067 476 1067 q 364 1092 394 1067 q 333 1158 333 1118 q 364 1224 333 1199 q 436 1250 394 1250 q 507 1224 476 1250 q 538 1158 538 1199 z "},"¤":{"ha":1072,"x_min":189,"x_max":886,"o":"m 886 507 q 799 281 886 401 l 883 194 l 853 160 l 767 244 q 540 161 651 161 q 308 244 422 161 l 222 160 l 189 194 l 274 281 q 194 504 194 399 q 275 738 194 615 l 189 824 l 222 858 l 308 774 q 540 850 436 850 q 760 769 646 850 l 847 857 l 879 824 l 804 744 q 886 507 886 608 m 736 500 q 681 646 736 586 q 540 706 626 706 q 399 646 454 706 q 344 500 344 586 q 398 358 344 411 q 540 306 451 306 q 683 358 629 306 q 736 500 736 411 z "},"‹":{"ha":463,"x_min":122,"x_max":342,"o":"m 342 149 l 122 322 l 122 449 l 340 619 l 342 497 l 196 385 l 340 272 l 342 149 z "},"›":{"ha":463,"x_min":122,"x_max":342,"o":"m 342 321 l 122 149 l 122 272 l 268 385 l 122 497 l 122 621 l 342 449 l 342 321 z "},"‡":{"ha":819,"x_min":25,"x_max":776,"o":"m 515 11 l 515 -269 l 286 -269 l 286 11 l 25 11 l 25 215 l 286 215 l 286 560 l 25 560 l 25 764 l 286 764 l 286 1046 l 515 1046 l 515 764 l 776 764 l 776 560 l 515 560 l 515 215 l 776 215 l 776 11 l 515 11 z "},"·":{"ha":511,"x_min":108,"x_max":399,"o":"m 399 517 q 357 415 399 457 q 254 372 315 372 q 150 413 192 372 q 108 517 108 454 q 151 622 108 579 q 254 665 193 665 q 358 622 317 665 q 399 517 399 579 z "},"‚":{"ha":378,"x_min":74,"x_max":294,"o":"m 294 117 q 151 -164 294 -71 l 74 -83 q 163 50 163 -7 q 161 76 163 71 q 139 88 157 88 l 83 88 l 83 292 l 294 292 l 294 117 z "},"„":{"ha":669,"x_min":74,"x_max":589,"o":"m 589 117 q 446 -164 589 -71 l 368 -83 q 457 50 457 -8 q 454 76 457 71 q 433 88 450 88 l 378 88 l 378 292 l 589 292 l 589 117 m 294 117 q 151 -164 294 -71 l 74 -83 q 163 50 163 -7 q 161 76 163 71 q 139 88 157 88 l 83 88 l 83 292 l 294 292 l 294 117 z "},"‰":{"ha":1921,"x_min":49,"x_max":1885,"o":"m 49 397 l 49 874 l 144 971 l 442 971 l 538 874 l 538 396 l 442 300 l 146 300 l 49 397 m 392 0 l 878 972 l 1010 972 l 524 0 l 392 0 m 151 324 l 435 324 l 514 404 l 514 868 l 435 947 l 151 947 l 72 868 l 72 404 l 151 324 m 511 18 l 979 954 l 890 954 l 422 18 l 511 18 m 150 429 l 150 842 l 219 911 l 367 911 l 436 842 l 436 431 l 365 360 l 221 360 l 150 429 m 478 54 l 911 918 l 922 918 l 490 54 l 478 54 m 224 385 l 361 385 l 413 436 l 413 838 l 363 888 l 224 888 l 174 839 l 175 433 l 224 385 m 868 101 l 868 578 l 964 675 l 1260 675 l 1357 576 l 1357 101 l 1260 4 l 965 4 l 868 101 m 969 28 l 1256 28 l 1333 107 l 1333 571 l 1254 651 l 969 651 l 892 572 l 892 107 l 969 28 m 969 135 l 969 546 l 1039 615 l 1186 615 l 1256 546 l 1256 138 l 1200 83 l 1022 83 l 969 135 m 1031 106 l 1194 106 l 1232 142 l 1232 540 l 1181 592 l 1043 592 l 993 543 l 993 142 l 1031 106 m 1396 101 l 1396 578 l 1492 675 l 1788 675 l 1885 576 l 1885 101 l 1788 4 l 1493 4 l 1396 101 m 1499 28 l 1783 28 l 1861 107 l 1861 571 l 1782 651 l 1499 651 l 1419 572 l 1419 107 l 1499 28 m 1497 135 l 1497 547 l 1567 615 l 1717 615 l 1783 549 l 1783 135 l 1713 64 l 1569 64 l 1497 135 m 1572 89 l 1708 89 l 1758 139 l 1758 542 l 1710 590 l 1572 590 l 1522 540 l 1522 139 l 1572 89 z "},"Â":{"ha":929,"x_min":29,"x_max":925,"o":"m 29 0 l 29 218 l 88 218 l 265 753 l 222 753 l 222 972 l 739 972 l 739 753 l 690 753 l 868 218 l 925 218 l 925 0 l 553 0 l 553 218 l 586 218 l 571 264 l 385 264 l 368 218 l 401 218 l 401 0 l 29 0 m 378 24 l 378 196 l 342 196 l 364 286 l 592 286 l 613 196 l 576 196 l 576 24 l 903 24 l 903 196 l 847 196 l 661 776 l 715 776 l 715 949 l 246 949 l 246 776 l 293 776 l 107 196 l 53 196 l 53 24 l 378 24 m 83 54 l 83 165 l 125 165 l 338 807 l 276 807 l 276 918 l 686 918 l 686 807 l 618 807 l 831 165 l 872 165 l 872 54 l 607 54 l 607 165 l 660 165 l 610 317 l 344 317 l 294 165 l 347 165 l 347 54 l 83 54 m 582 397 l 478 714 l 371 397 l 582 397 m 418 425 l 478 618 l 536 425 l 418 425 m 510 450 l 478 543 l 446 450 l 510 450 m 724 1169 l 647 1072 l 488 1174 l 326 1074 l 251 1171 l 489 1329 l 724 1169 z "},"Ê":{"ha":754,"x_min":29,"x_max":743,"o":"m 29 0 l 29 218 l 88 218 l 88 753 l 29 753 l 29 972 l 743 972 l 743 714 l 525 714 l 525 753 l 354 753 l 354 596 l 393 596 l 393 633 l 613 633 l 613 339 l 393 339 l 393 376 l 354 376 l 354 218 l 525 218 l 525 258 l 743 258 l 743 0 l 29 0 m 719 24 l 719 235 l 547 235 l 547 196 l 331 196 l 331 401 l 417 401 l 417 363 l 589 363 l 589 610 l 417 610 l 417 571 l 331 571 l 331 776 l 547 776 l 547 738 l 719 738 l 719 949 l 53 949 l 53 776 l 110 776 l 110 196 l 53 196 l 53 24 l 719 24 m 83 54 l 83 165 l 140 165 l 140 807 l 83 807 l 83 918 l 690 918 l 690 768 l 578 768 l 578 807 l 301 807 l 301 542 l 447 542 l 447 581 l 558 581 l 558 392 l 447 392 l 447 431 l 301 431 l 301 165 l 578 165 l 578 204 l 690 204 l 690 54 l 83 54 m 640 1165 l 564 1068 l 404 1169 l 243 1069 l 168 1167 l 406 1325 l 640 1165 z "},"Á":{"ha":926,"x_min":29,"x_max":925,"o":"m 29 0 l 29 218 l 88 218 l 265 753 l 222 753 l 222 972 l 739 972 l 739 753 l 690 753 l 868 218 l 925 218 l 925 0 l 553 0 l 553 218 l 586 218 l 571 264 l 385 264 l 368 218 l 401 218 l 401 0 l 29 0 m 378 24 l 378 196 l 342 196 l 364 286 l 592 286 l 613 196 l 576 196 l 576 24 l 903 24 l 903 196 l 847 196 l 661 776 l 715 776 l 715 949 l 246 949 l 246 776 l 293 776 l 107 196 l 53 196 l 53 24 l 378 24 m 83 54 l 83 165 l 125 165 l 338 807 l 276 807 l 276 918 l 686 918 l 686 807 l 618 807 l 831 165 l 872 165 l 872 54 l 607 54 l 607 165 l 660 165 l 610 317 l 344 317 l 294 165 l 347 165 l 347 54 l 83 54 m 582 397 l 478 714 l 371 397 l 582 397 m 418 425 l 478 618 l 536 425 l 418 425 m 510 450 l 478 543 l 446 450 l 510 450 m 676 1251 l 449 1065 l 357 1126 l 539 1340 l 676 1251 z "},"Ë":{"ha":765,"x_min":29,"x_max":743,"o":"m 29 0 l 29 218 l 88 218 l 88 753 l 29 753 l 29 972 l 743 972 l 743 714 l 525 714 l 525 753 l 354 753 l 354 596 l 393 596 l 393 633 l 613 633 l 613 339 l 393 339 l 393 376 l 354 376 l 354 218 l 525 218 l 525 258 l 743 258 l 743 0 l 29 0 m 719 24 l 719 235 l 547 235 l 547 196 l 331 196 l 331 401 l 417 401 l 417 363 l 589 363 l 589 610 l 417 610 l 417 571 l 331 571 l 331 776 l 547 776 l 547 738 l 719 738 l 719 949 l 53 949 l 53 776 l 110 776 l 110 196 l 53 196 l 53 24 l 719 24 m 83 54 l 83 165 l 140 165 l 140 807 l 83 807 l 83 918 l 690 918 l 690 768 l 578 768 l 578 807 l 301 807 l 301 542 l 447 542 l 447 581 l 558 581 l 558 392 l 447 392 l 447 431 l 301 431 l 301 165 l 578 165 l 578 204 l 690 204 l 690 54 l 83 54 m 640 1163 q 610 1097 640 1124 q 539 1071 579 1071 q 467 1097 497 1071 q 436 1163 436 1122 q 467 1228 436 1203 q 539 1254 497 1254 q 610 1228 579 1254 q 640 1163 640 1203 m 358 1163 q 328 1097 358 1124 q 257 1071 297 1071 q 185 1097 215 1071 q 154 1163 154 1122 q 185 1228 154 1203 q 257 1254 215 1254 q 328 1228 297 1254 q 358 1163 358 1203 z "},"È":{"ha":763,"x_min":29,"x_max":743,"o":"m 29 0 l 29 218 l 88 218 l 88 753 l 29 753 l 29 972 l 743 972 l 743 714 l 525 714 l 525 753 l 354 753 l 354 596 l 393 596 l 393 633 l 613 633 l 613 339 l 393 339 l 393 376 l 354 376 l 354 218 l 525 218 l 525 258 l 743 258 l 743 0 l 29 0 m 719 24 l 719 235 l 547 235 l 547 196 l 331 196 l 331 401 l 417 401 l 417 363 l 589 363 l 589 610 l 417 610 l 417 571 l 331 571 l 331 776 l 547 776 l 547 738 l 719 738 l 719 949 l 53 949 l 53 776 l 110 776 l 110 196 l 53 196 l 53 24 l 719 24 m 83 54 l 83 165 l 140 165 l 140 807 l 83 807 l 83 918 l 690 918 l 690 768 l 578 768 l 578 807 l 301 807 l 301 542 l 447 542 l 447 581 l 558 581 l 558 392 l 447 392 l 447 431 l 301 431 l 301 165 l 578 165 l 578 204 l 690 204 l 690 54 l 83 54 m 478 1131 l 386 1071 l 161 1256 l 296 1344 l 478 1131 z "},"Í":{"ha":422,"x_min":29,"x_max":413,"o":"m 29 0 l 29 218 l 88 218 l 88 753 l 29 753 l 29 972 l 413 972 l 413 753 l 354 753 l 354 218 l 413 218 l 413 0 l 29 0 m 389 24 l 389 194 l 329 194 l 329 776 l 389 776 l 389 949 l 53 949 l 53 776 l 111 776 l 111 194 l 53 194 l 53 24 l 389 24 m 83 54 l 83 165 l 140 165 l 140 807 l 83 807 l 83 918 l 360 918 l 360 807 l 301 807 l 301 165 l 360 165 l 360 54 l 83 54 m 388 1256 l 160 1069 l 68 1131 l 250 1344 l 388 1256 z "},"Î":{"ha":417,"x_min":-39,"x_max":433,"o":"m 29 0 l 29 218 l 88 218 l 88 753 l 29 753 l 29 972 l 413 972 l 413 753 l 354 753 l 354 218 l 413 218 l 413 0 l 29 0 m 389 24 l 389 194 l 329 194 l 329 776 l 389 776 l 389 949 l 53 949 l 53 776 l 111 776 l 111 194 l 53 194 l 53 24 l 389 24 m 83 54 l 83 165 l 140 165 l 140 807 l 83 807 l 83 918 l 360 918 l 360 807 l 301 807 l 301 165 l 360 165 l 360 54 l 83 54 m 433 1165 l 357 1068 l 197 1169 l 36 1069 l -39 1167 l 199 1325 l 433 1165 z "},"Ï":{"ha":411,"x_min":-47,"x_max":439,"o":"m 29 0 l 29 218 l 88 218 l 88 753 l 29 753 l 29 972 l 413 972 l 413 753 l 354 753 l 354 218 l 413 218 l 413 0 l 29 0 m 389 24 l 389 194 l 329 194 l 329 776 l 389 776 l 389 949 l 53 949 l 53 776 l 111 776 l 111 194 l 53 194 l 53 24 l 389 24 m 83 54 l 83 165 l 140 165 l 140 807 l 83 807 l 83 918 l 360 918 l 360 807 l 301 807 l 301 165 l 360 165 l 360 54 l 83 54 m 439 1163 q 408 1097 439 1124 q 338 1071 378 1071 q 265 1097 296 1071 q 235 1163 235 1122 q 265 1228 235 1203 q 338 1254 296 1254 q 408 1228 378 1254 q 439 1163 439 1203 m 157 1163 q 126 1097 157 1124 q 56 1071 96 1071 q -17 1097 14 1071 q -47 1163 -47 1122 q -17 1228 -47 1203 q 56 1254 14 1254 q 126 1228 96 1254 q 157 1163 157 1203 z "},"Ì":{"ha":419,"x_min":-14,"x_max":413,"o":"m 29 0 l 29 218 l 88 218 l 88 753 l 29 753 l 29 972 l 413 972 l 413 753 l 354 753 l 354 218 l 413 218 l 413 0 l 29 0 m 389 24 l 389 194 l 329 194 l 329 776 l 389 776 l 389 949 l 53 949 l 53 776 l 111 776 l 111 194 l 53 194 l 53 24 l 389 24 m 83 54 l 83 165 l 140 165 l 140 807 l 83 807 l 83 918 l 360 918 l 360 807 l 301 807 l 301 165 l 360 165 l 360 54 l 83 54 m 303 1126 l 211 1067 l -14 1251 l 121 1340 l 303 1126 z "},"Ó":{"ha":832,"x_min":58,"x_max":797,"o":"m 58 156 l 58 817 l 214 972 l 642 972 l 797 817 l 797 156 l 642 0 l 214 0 l 58 156 m 222 25 l 635 25 l 774 164 l 774 807 l 632 949 l 222 949 l 83 810 l 83 164 l 222 25 m 113 182 l 113 790 l 240 918 l 617 918 l 744 790 l 744 182 l 617 54 l 240 54 l 113 182 m 332 165 l 524 165 l 583 225 l 583 746 l 522 807 l 332 807 l 272 747 l 272 225 l 332 165 m 301 243 l 301 729 l 350 778 l 506 778 l 554 729 l 554 243 l 506 194 l 350 194 l 301 243 m 357 218 l 499 218 l 529 249 l 529 722 l 499 753 l 356 753 l 325 722 l 325 250 l 357 218 m 658 1256 l 431 1069 l 339 1131 l 521 1344 l 658 1256 z "},"Ô":{"ha":833,"x_min":58,"x_max":797,"o":"m 58 156 l 58 817 l 214 972 l 642 972 l 797 817 l 797 156 l 642 0 l 214 0 l 58 156 m 222 25 l 635 25 l 774 164 l 774 807 l 632 949 l 222 949 l 83 810 l 83 164 l 222 25 m 113 182 l 113 790 l 240 918 l 617 918 l 744 790 l 744 182 l 617 54 l 240 54 l 113 182 m 332 165 l 524 165 l 583 225 l 583 746 l 522 807 l 332 807 l 272 747 l 272 225 l 332 165 m 301 243 l 301 729 l 350 778 l 506 778 l 554 729 l 554 243 l 506 194 l 350 194 l 301 243 m 357 218 l 499 218 l 529 249 l 529 722 l 499 753 l 356 753 l 325 722 l 325 250 l 357 218 m 675 1171 l 599 1074 l 439 1175 l 278 1075 l 203 1172 l 440 1331 l 675 1171 z "},"Ò":{"ha":842,"x_min":58,"x_max":797,"o":"m 58 156 l 58 817 l 214 972 l 642 972 l 797 817 l 797 156 l 642 0 l 214 0 l 58 156 m 222 25 l 635 25 l 774 164 l 774 807 l 632 949 l 222 949 l 83 810 l 83 164 l 222 25 m 113 182 l 113 790 l 240 918 l 617 918 l 744 790 l 744 182 l 617 54 l 240 54 l 113 182 m 332 165 l 524 165 l 583 225 l 583 746 l 522 807 l 332 807 l 272 747 l 272 225 l 332 165 m 301 243 l 301 729 l 350 778 l 506 778 l 554 729 l 554 243 l 506 194 l 350 194 l 301 243 m 357 218 l 499 218 l 529 249 l 529 722 l 499 753 l 356 753 l 325 722 l 325 250 l 357 218 m 497 1131 l 406 1071 l 181 1256 l 315 1344 l 497 1131 z "},"Ú":{"ha":908,"x_min":40,"x_max":896,"o":"m 40 753 l 40 972 l 424 972 l 424 753 l 365 753 l 365 249 l 396 218 l 539 218 l 569 249 l 569 753 l 511 753 l 511 972 l 896 972 l 896 753 l 836 753 l 836 156 l 682 0 l 254 0 l 99 156 l 99 753 l 40 753 m 121 776 l 121 161 l 258 24 l 678 24 l 814 160 l 814 776 l 871 776 l 871 949 l 535 949 l 535 776 l 594 776 l 594 244 l 544 196 l 392 196 l 342 246 l 342 776 l 400 776 l 400 949 l 64 949 l 64 776 l 121 776 m 94 807 l 94 918 l 371 918 l 371 807 l 313 807 l 313 225 l 372 165 l 563 165 l 624 226 l 624 807 l 565 807 l 565 918 l 842 918 l 842 807 l 783 807 l 783 182 l 656 54 l 281 54 l 151 183 l 151 807 l 94 807 m 597 1251 l 369 1065 l 278 1126 l 460 1340 l 597 1251 z "},"Û":{"ha":899,"x_min":40,"x_max":896,"o":"m 40 753 l 40 972 l 424 972 l 424 753 l 365 753 l 365 249 l 396 218 l 539 218 l 569 249 l 569 753 l 511 753 l 511 972 l 896 972 l 896 753 l 836 753 l 836 156 l 682 0 l 254 0 l 99 156 l 99 753 l 40 753 m 121 776 l 121 161 l 258 24 l 678 24 l 814 160 l 814 776 l 871 776 l 871 949 l 535 949 l 535 776 l 594 776 l 594 244 l 544 196 l 392 196 l 342 246 l 342 776 l 400 776 l 400 949 l 64 949 l 64 776 l 121 776 m 94 807 l 94 918 l 371 918 l 371 807 l 313 807 l 313 225 l 372 165 l 563 165 l 624 226 l 624 807 l 565 807 l 565 918 l 842 918 l 842 807 l 783 807 l 783 182 l 656 54 l 281 54 l 151 183 l 151 807 l 94 807 m 682 1169 l 606 1072 l 446 1174 l 285 1074 l 210 1171 l 447 1329 l 682 1169 z "},"Ù":{"ha":915,"x_min":40,"x_max":896,"o":"m 40 753 l 40 972 l 424 972 l 424 753 l 365 753 l 365 249 l 396 218 l 539 218 l 569 249 l 569 753 l 511 753 l 511 972 l 896 972 l 896 753 l 836 753 l 836 156 l 682 0 l 254 0 l 99 156 l 99 753 l 40 753 m 121 776 l 121 161 l 258 24 l 678 24 l 814 160 l 814 776 l 871 776 l 871 949 l 535 949 l 535 776 l 594 776 l 594 244 l 544 196 l 392 196 l 342 246 l 342 776 l 400 776 l 400 949 l 64 949 l 64 776 l 121 776 m 94 807 l 94 918 l 371 918 l 371 807 l 313 807 l 313 225 l 372 165 l 563 165 l 624 226 l 624 807 l 565 807 l 565 918 l 842 918 l 842 807 l 783 807 l 783 182 l 656 54 l 281 54 l 151 183 l 151 807 l 94 807 m 561 1132 l 469 1072 l 244 1257 l 379 1346 l 561 1132 z "},"ˆ":{"ha":683,"x_min":131,"x_max":603,"o":"m 603 818 l 526 721 l 367 822 l 206 722 l 131 819 l 368 978 l 603 818 z "},"˜":{"ha":715,"x_min":94,"x_max":617,"o":"m 617 893 q 447 763 549 763 q 343 795 410 763 q 256 828 276 828 q 185 767 215 828 l 94 832 q 264 956 161 956 q 365 922 304 956 q 449 889 426 889 q 525 954 488 889 l 617 893 z "},"¯":{"ha":711,"x_min":129,"x_max":593,"o":"m 593 846 l 129 846 l 129 951 l 593 951 l 593 846 z "},"¸":{"ha":517,"x_min":153,"x_max":425,"o":"m 425 -74 l 263 -274 l 153 -200 l 321 -14 l 425 -74 z "},"Š":{"ha":839,"x_min":49,"x_max":788,"o":"m 49 156 l 49 342 l 315 342 l 315 250 l 349 218 l 488 218 l 519 249 l 519 344 l 489 374 l 204 374 l 49 529 l 49 817 l 204 972 l 632 972 l 788 817 l 788 625 l 519 625 l 519 722 l 489 753 l 344 753 l 315 722 l 315 624 l 346 593 l 632 593 l 788 438 l 788 156 l 632 0 l 204 0 l 49 156 m 211 24 l 625 24 l 764 161 l 764 433 l 626 569 l 340 569 l 293 618 l 293 728 l 340 776 l 494 776 l 543 728 l 543 649 l 764 649 l 764 811 l 626 949 l 210 949 l 72 811 l 72 535 l 210 397 l 494 397 l 543 350 l 543 244 l 493 196 l 342 196 l 293 244 l 293 318 l 72 318 l 72 161 l 211 24 m 103 182 l 103 289 l 263 289 l 263 225 l 322 165 l 514 165 l 574 226 l 574 365 l 513 428 l 232 428 l 103 557 l 103 790 l 231 918 l 606 918 l 735 788 l 735 678 l 574 678 l 574 744 l 513 807 l 322 807 l 263 747 l 263 600 l 322 540 l 606 540 l 735 410 l 735 182 l 608 54 l 229 54 l 103 182 m 647 1222 l 410 1067 l 174 1224 l 246 1318 l 410 1222 l 576 1318 l 647 1222 z "},"š":{"ha":722,"x_min":49,"x_max":681,"o":"m 49 128 l 49 235 l 210 235 l 210 171 l 268 113 l 461 113 l 519 171 l 519 315 l 461 374 l 176 374 l 49 503 l 49 738 l 176 865 l 553 865 l 681 738 l 681 625 l 519 625 l 519 693 l 461 753 l 268 753 l 210 693 l 210 547 l 268 486 l 553 486 l 681 358 l 681 128 l 553 0 l 176 0 l 49 128 m 626 1099 l 389 943 l 153 1100 l 225 1194 l 389 1099 l 556 1194 l 626 1099 z "},"¦":{"ha":361,"x_min":81,"x_max":282,"o":"m 81 660 l 81 1142 l 282 1142 l 282 660 l 81 660 m 81 -6 l 81 501 l 282 501 l 282 -6 l 81 -6 z "},"Ð":{"ha":821,"x_min":0,"x_max":767,"o":"m 10 0 l 10 218 l 68 218 l 68 392 l 0 392 l 0 578 l 68 578 l 68 753 l 10 753 l 10 972 l 611 972 l 767 817 l 767 156 l 613 0 l 10 0 m 64 54 l 64 165 l 121 165 l 121 392 l 90 392 l 90 196 l 33 196 l 33 24 l 607 24 l 743 160 l 743 813 l 607 949 l 33 949 l 33 776 l 90 776 l 90 578 l 121 578 l 121 807 l 64 807 l 64 918 l 585 918 l 713 790 l 713 182 l 583 54 l 64 54 m 311 196 l 311 392 l 282 392 l 282 165 l 494 165 l 553 225 l 553 747 l 493 807 l 282 807 l 282 578 l 311 578 l 311 776 l 475 776 l 524 729 l 524 246 l 474 196 l 311 196 m 467 218 l 500 250 l 500 724 l 469 753 l 335 753 l 335 578 l 449 578 l 449 392 l 335 392 l 335 218 l 467 218 z "},"ð":{"ha":824,"x_min":42,"x_max":788,"o":"m 478 793 q 401 881 449 828 l 226 793 l 115 906 l 269 979 q 214 1008 263 985 l 136 1047 l 319 1135 q 449 1067 408 1096 l 597 1138 l 722 1033 l 569 960 q 742 697 686 839 q 788 447 788 582 q 703 129 788 251 q 418 -14 606 -14 q 142 106 247 -14 q 42 393 42 221 q 135 679 42 564 q 399 803 235 803 q 478 793 440 803 m 539 568 q 414 628 493 628 q 279 553 326 628 q 239 396 239 489 q 278 236 239 299 q 415 161 325 161 q 549 238 501 161 q 589 394 589 303 q 539 568 589 503 z "},"Ý":{"ha":1078,"x_min":10,"x_max":1075,"o":"m 10 753 l 10 972 l 471 972 l 471 753 l 463 753 l 550 667 l 638 753 l 626 753 l 626 972 l 1075 972 l 1075 753 l 996 753 l 682 439 l 682 218 l 740 218 l 740 0 l 358 0 l 358 218 l 415 218 l 415 439 l 101 753 l 10 753 m 111 776 l 439 449 l 439 196 l 381 196 l 381 22 l 718 22 l 718 196 l 658 196 l 658 449 l 988 776 l 1051 776 l 1051 949 l 650 949 l 650 776 l 693 776 l 550 633 l 407 776 l 447 776 l 447 949 l 33 949 l 33 776 l 111 776 m 64 807 l 64 918 l 417 918 l 417 807 l 332 807 l 549 590 l 765 807 l 681 807 l 681 918 l 1022 918 l 1022 807 l 978 807 l 629 461 l 629 165 l 688 165 l 688 43 l 411 43 l 411 165 l 469 165 l 469 461 l 122 807 l 64 807 m 763 1258 l 535 1072 l 443 1133 l 625 1347 l 763 1258 z "},"ý":{"ha":872,"x_min":10,"x_max":871,"o":"m 10 753 l 10 865 l 364 865 l 364 753 l 278 753 l 447 536 l 614 753 l 529 753 l 529 865 l 871 865 l 871 753 l 824 753 l 526 408 l 526 113 l 585 113 l 585 -10 l 310 -10 l 310 113 l 367 113 l 367 408 l 71 753 l 10 753 m 690 1118 l 463 932 l 371 993 l 553 1207 l 690 1118 z "},"Þ":{"ha":776,"x_min":10,"x_max":767,"o":"m 493 533 l 553 594 l 553 747 l 493 807 l 282 807 l 282 533 l 493 533 m 279 949 l 279 917 l 585 918 l 713 790 l 713 550 l 585 421 l 282 421 l 282 165 l 340 165 l 340 54 l 64 54 l 64 165 l 121 165 l 121 788 l 121 788 l 121 949 l 90 949 l 90 196 l 33 196 l 33 24 l 369 24 l 369 196 l 311 196 l 311 392 l 607 392 l 743 529 l 743 813 l 607 949 l 279 949 m 121 1197 l 278 1197 q 279 972 278 1196 l 611 972 l 767 817 l 767 524 l 611 368 l 335 368 l 335 218 l 393 218 l 393 0 l 10 0 l 10 218 l 68 218 l 68 972 l 121 972 l 121 1197 m 311 564 l 311 776 l 475 776 l 524 728 l 524 614 l 474 564 l 311 564 m 469 588 l 500 618 l 500 722 l 469 753 l 335 753 l 335 588 l 469 588 z "},"þ":{"ha":669,"x_min":10,"x_max":660,"o":"m 439 481 l 500 540 l 500 693 l 439 753 l 228 753 l 228 481 l 439 481 m 65 1197 l 224 1197 q 224 865 222 1183 l 532 865 l 660 738 l 660 497 l 532 368 l 228 368 l 228 113 l 286 113 l 286 0 l 10 0 l 10 113 l 68 113 l 68 753 l 10 753 l 10 865 l 65 865 l 65 1197 z "},"­":{"ha":811,"x_min":4,"x_max":806,"o":"m 4 251 l 4 451 l 806 451 l 806 251 l 4 251 z "},"×":{"ha":924,"x_min":39,"x_max":881,"o":"m 742 -40 l 461 239 l 181 -43 l 42 100 l 321 379 l 39 660 l 182 799 l 461 521 l 742 799 l 881 660 l 603 379 l 881 99 l 742 -40 z "},"Ł":{"ha":856,"x_min":-14,"x_max":799,"o":"m 79 0 l 79 218 l 138 218 l 138 447 l -14 383 l -14 450 l 138 515 l 138 753 l 79 753 l 79 972 l 463 972 l 463 753 l 404 753 l 404 629 l 667 742 l 667 674 l 404 561 l 404 218 l 579 218 l 579 276 l 799 276 l 799 0 l 79 0 m 190 538 l 190 807 l 133 807 l 133 918 l 410 918 l 410 807 l 351 807 l 351 607 l 381 619 l 381 776 l 439 776 l 439 949 l 103 949 l 103 776 l 160 776 l 160 524 l 190 538 m 133 54 l 133 165 l 190 165 l 190 471 l 160 458 l 160 196 l 103 196 l 103 24 l 775 24 l 775 253 l 603 253 l 603 196 l 381 196 l 381 551 l 351 539 l 351 165 l 632 165 l 632 224 l 744 224 l 744 54 l 133 54 z "},"ł":{"ha":757,"x_min":-14,"x_max":706,"o":"m 93 0 l 93 113 l 151 113 l 151 454 l -14 383 l -14 450 l 151 522 l 151 753 l 93 753 l 93 865 l 369 865 l 369 753 l 311 753 l 311 592 l 514 679 l 514 611 l 311 524 l 311 113 l 593 113 l 593 169 l 706 169 l 706 0 l 93 0 z "},"Ž":{"ha":789,"x_min":10,"x_max":736,"o":"m 10 0 l 10 185 l 389 753 l 228 753 l 228 696 l 10 696 l 10 972 l 736 972 l 736 788 l 357 218 l 517 218 l 517 276 l 736 276 l 736 0 l 10 0 m 713 24 l 713 253 l 540 253 l 540 196 l 324 196 l 713 793 l 713 949 l 33 949 l 33 718 l 204 718 l 204 776 l 422 776 l 33 179 l 33 24 l 713 24 m 64 54 l 64 165 l 490 807 l 174 807 l 174 749 l 64 749 l 64 918 l 682 918 l 682 807 l 254 165 l 569 165 l 569 224 l 682 224 l 682 54 l 64 54 m 660 1225 l 422 1069 l 186 1226 l 258 1321 l 422 1225 l 589 1321 l 660 1225 z "},"ž":{"ha":663,"x_min":10,"x_max":629,"o":"m 10 0 l 10 113 l 438 753 l 121 753 l 121 696 l 10 696 l 10 865 l 629 865 l 629 753 l 201 113 l 517 113 l 517 169 l 629 169 l 629 0 l 10 0 m 592 1094 l 354 939 l 118 1096 l 190 1190 l 354 1094 l 521 1190 l 592 1094 z "},"≠":{"ha":932,"x_min":43,"x_max":899,"o":"m 442 147 l 301 -103 l 146 -15 l 235 147 l 43 147 l 43 326 l 333 326 l 389 426 l 43 426 l 43 604 l 489 604 l 629 860 l 786 772 l 694 604 l 899 604 l 899 426 l 596 426 l 540 326 l 899 326 l 899 147 l 442 147 z "},"∞":{"ha":1031,"x_min":38,"x_max":994,"o":"m 994 383 q 938 241 994 304 q 801 178 881 178 q 639 228 721 178 q 574 276 603 250 q 515 333 560 289 q 421 246 485 301 q 231 179 329 179 q 94 242 150 179 q 38 385 38 304 q 98 526 38 469 q 243 583 158 583 q 468 472 336 583 l 517 431 l 531 442 q 638 532 565 474 q 792 583 713 583 q 935 525 875 583 q 994 383 994 467 m 919 375 q 882 468 919 428 q 792 508 844 508 q 615 424 719 508 l 578 393 l 565 382 l 579 367 q 697 271 633 307 q 789 249 736 249 q 881 285 843 249 q 919 375 919 321 m 468 382 l 456 393 q 333 482 390 451 q 243 507 286 507 q 150 469 189 507 q 111 378 111 432 q 151 286 111 324 q 244 249 190 249 q 440 354 335 249 l 468 382 z "},"≤":{"ha":929,"x_min":61,"x_max":878,"o":"m 61 624 l 61 774 l 878 1153 l 878 956 l 322 699 l 878 442 l 878 246 l 61 624 m 61 7 l 61 185 l 878 185 l 878 7 l 61 7 z "},"≥":{"ha":929,"x_min":61,"x_max":878,"o":"m 878 624 l 878 774 l 61 1153 l 61 956 l 617 699 l 61 442 l 61 246 l 878 624 m 878 7 l 878 185 l 61 185 l 61 7 l 878 7 z "},"∂":{"ha":714,"x_min":38,"x_max":667,"o":"m 667 579 q 599 193 667 356 q 314 -29 507 -29 q 117 52 196 -29 q 38 251 38 133 q 114 476 38 381 q 322 581 196 581 q 526 494 419 581 l 540 483 q 556 638 556 583 q 529 825 556 735 q 429 979 494 940 q 308 1011 375 1011 q 240 1000 272 1011 q 176 974 233 997 l 150 963 l 94 1036 l 111 1042 l 143 1053 l 160 1057 l 190 1064 q 276 1076 246 1076 q 574 918 468 1076 q 667 579 667 781 m 528 432 q 376 522 454 522 q 213 414 272 522 q 164 211 164 325 q 189 82 164 133 q 292 14 222 14 q 483 214 419 14 q 528 432 518 324 z "},"∑":{"ha":1031,"x_min":21,"x_max":1004,"o":"m 1004 168 l 1000 149 l 976 49 l 951 -75 l 942 -156 l 838 -140 l 21 -144 l 525 431 l 24 1085 l 139 1076 l 892 1076 l 901 844 l 869 844 l 865 863 q 800 981 846 944 q 672 1010 760 1010 l 274 1010 l 664 494 l 242 6 l 803 6 q 911 57 869 6 q 968 168 940 92 l 1004 168 z "},"∏":{"ha":1189,"x_min":36,"x_max":1160,"o":"m 1160 -146 l 717 -146 l 717 -111 q 856 -7 856 -111 l 856 1004 l 340 1004 l 340 -14 q 479 -111 340 -111 l 479 -146 l 36 -146 l 36 -111 q 175 -14 175 -111 l 175 925 q 139 1017 175 983 q 44 1050 103 1050 l 39 1050 l 39 1085 l 1156 1085 l 1156 1050 l 1150 1050 q 1019 910 1019 1050 l 1019 -7 q 1160 -111 1019 -111 l 1160 -146 z "},"π":{"ha":793,"x_min":14,"x_max":765,"o":"m 765 219 q 726 61 765 129 q 594 -22 678 -22 q 492 46 529 -22 q 454 232 450 122 l 458 339 l 483 579 l 322 579 l 321 557 q 283 224 313 421 q 244 33 263 82 q 160 -28 222 -28 q 103 -4 125 -28 q 81 56 81 19 q 92 85 81 74 l 161 178 q 190 244 185 201 l 232 579 l 200 579 q 104 561 135 579 q 40 486 79 544 l 14 486 q 46 574 35 549 q 97 651 65 617 q 208 703 143 703 l 754 703 l 754 579 l 574 579 l 572 561 q 556 274 556 344 l 556 263 q 646 111 556 111 q 733 219 722 111 l 765 219 z "},"∫":{"ha":396,"x_min":3,"x_max":421,"o":"m 421 1242 q 340 1176 421 1176 q 321 1182 332 1176 l 290 1206 q 276 1213 285 1207 q 247 1165 244 1213 l 249 1135 l 269 875 q 276 551 276 789 q 269 242 276 332 q 196 -103 251 -1 q 85 -153 168 -153 q 26 -125 50 -153 q 3 -62 3 -97 q 35 -15 3 -35 q 69 -3 56 -3 q 136 -47 86 -3 q 183 82 188 -43 l 172 444 l 174 840 q 189 1117 174 1025 q 326 1321 222 1321 q 393 1300 365 1321 q 421 1242 421 1279 z "},"Ω":{"ha":1110,"x_min":49,"x_max":1063,"o":"m 1063 0 l 638 0 l 660 219 q 768 286 732 249 q 864 579 864 383 q 793 839 864 744 q 554 947 713 947 q 319 838 400 947 q 247 581 247 740 q 347 283 247 383 q 454 219 385 246 l 476 0 l 49 0 l 49 233 l 74 233 q 88 189 82 200 q 117 156 99 161 q 267 144 153 142 l 394 147 l 392 186 q 210 276 268 224 q 78 575 78 394 q 224 886 78 769 q 557 994 358 994 q 889 886 754 994 q 1035 576 1035 769 q 988 383 1035 475 q 853 240 938 288 q 722 186 797 210 l 719 147 q 785 146 742 147 q 850 144 828 144 q 996 154 971 144 q 1036 217 1025 174 l 1040 233 l 1063 233 l 1063 0 z "},"√":{"ha":793,"x_min":13,"x_max":744,"o":"m 744 1315 l 529 -58 l 176 669 l 38 601 l 13 650 l 226 754 l 510 175 l 692 1324 l 744 1315 z "},"≈":{"ha":793,"x_min":19,"x_max":761,"o":"m 761 535 q 554 418 689 418 l 529 422 l 281 492 q 228 499 256 499 q 83 411 146 499 l 21 453 q 233 567 114 567 l 279 563 l 521 496 l 556 490 q 708 569 642 490 l 761 535 m 761 317 q 557 200 688 200 q 528 204 543 200 l 281 274 q 225 281 256 281 q 83 194 147 281 l 19 233 q 233 349 108 349 q 282 342 256 349 l 521 278 l 554 272 q 707 353 640 272 l 761 317 z "},"Δ":{"ha":883,"x_min":8,"x_max":878,"o":"m 878 0 l 8 0 l 471 996 l 878 0 m 697 72 l 419 744 l 106 72 l 697 72 z "},"◊":{"ha":714,"x_min":26,"x_max":674,"o":"m 674 544 l 394 0 l 306 0 l 26 544 l 304 1076 l 394 1076 l 674 544 m 585 544 l 350 996 l 114 544 l 350 81 l 585 544 z "},"⁄":{"ha":686,"x_min":-46,"x_max":704,"o":"m 704 972 l 79 0 l -46 0 l 582 972 l 704 972 z "},"":{"ha":944,"x_min":10,"x_max":925,"o":"m 10 0 l 10 113 l 68 113 l 68 753 l 10 753 l 10 865 l 617 865 l 617 714 l 506 714 l 506 753 l 228 753 l 228 488 l 374 488 l 374 526 l 486 526 l 486 339 l 374 339 l 374 376 l 228 376 l 228 113 l 340 113 l 340 0 l 10 0 m 649 0 l 649 113 l 707 113 l 707 753 l 649 753 l 649 865 l 925 865 l 925 753 l 867 753 l 867 113 l 925 113 l 925 0 l 649 0 z "},"":{"ha":1289,"x_min":10,"x_max":1261,"o":"m 10 0 l 10 113 l 68 113 l 68 753 l 10 753 l 10 865 l 617 865 l 617 714 l 506 714 l 506 753 l 228 753 l 228 488 l 374 488 l 374 526 l 486 526 l 486 339 l 374 339 l 374 376 l 228 376 l 228 113 l 340 113 l 340 0 l 10 0 m 649 0 l 649 113 l 707 113 l 707 753 l 649 753 l 649 865 l 925 865 l 925 753 l 867 753 l 867 113 l 1149 113 l 1149 169 l 1261 169 l 1261 0 l 649 0 z "},"":{"ha":1142,"x_min":124,"x_max":1006,"o":"m 771 983 q 708 821 771 893 q 557 749 646 749 q 613 919 557 853 q 771 999 668 985 l 771 983 m 1006 244 q 761 -39 892 -39 q 703 -26 732 -39 l 644 -1 q 599 4 632 4 q 522 -3 547 4 l 461 -29 q 406 -40 435 -40 q 246 78 325 -40 q 124 442 124 260 q 192 663 124 574 q 394 760 267 760 q 507 733 440 760 q 575 717 550 717 q 638 731 600 717 q 769 763 725 763 q 978 660 903 763 q 863 458 863 569 q 1006 244 863 303 z "},"ı":{"ha":296,"x_min":10,"x_max":286,"o":"m 10 0 l 10 113 l 68 113 l 68 753 l 10 753 l 10 865 l 286 865 l 286 753 l 228 753 l 228 113 l 286 113 l 286 0 l 10 0 z "},"˘":{"ha":711,"x_min":124,"x_max":588,"o":"m 588 951 q 512 810 576 863 q 356 758 447 758 q 201 810 265 758 q 124 951 138 863 l 233 951 q 356 878 264 878 q 479 951 449 878 l 588 951 z "},"˙":{"ha":544,"x_min":211,"x_max":415,"o":"m 415 860 q 385 794 415 819 q 314 768 356 768 q 242 794 272 768 q 211 860 211 819 q 242 924 211 900 q 314 949 272 949 q 385 924 354 949 q 415 860 415 900 z "},"˚":{"ha":663,"x_min":169,"x_max":472,"o":"m 472 846 q 428 748 472 783 q 319 713 385 713 q 215 747 257 713 q 169 846 169 785 q 214 947 169 908 q 319 982 256 982 q 426 947 383 982 q 472 846 472 908 m 374 847 q 319 892 374 892 q 267 847 267 892 q 319 801 267 801 q 374 847 374 801 z "},"˝":{"ha":725,"x_min":144,"x_max":651,"o":"m 651 943 l 496 719 l 386 738 l 493 972 l 651 943 m 406 950 l 254 731 l 144 749 l 246 978 l 406 950 z "},"˛":{"ha":432,"x_min":60,"x_max":326,"o":"m 326 -171 l 303 -253 q 206 -281 260 -281 q 108 -253 150 -281 q 60 -168 60 -221 q 99 -71 60 -121 q 181 0 133 -25 l 271 0 l 271 -15 q 218 -64 243 -31 q 189 -128 189 -100 q 250 -174 189 -174 q 321 -144 283 -174 l 326 -171 z "},"ˇ":{"ha":642,"x_min":76,"x_max":550,"o":"m 550 882 l 313 726 l 76 883 l 149 978 l 313 882 l 479 978 l 550 882 z "}}}
